<?xml version="1.0" encoding="UTF-8" standalone="no"?>
<!-- Created with matplotlib (https://matplotlib.org/) -->

<svg
   xmlns:dc="http://purl.org/dc/elements/1.1/"
   xmlns:cc="http://creativecommons.org/ns#"
   xmlns:rdf="http://www.w3.org/1999/02/22-rdf-syntax-ns#"
   xmlns:svg="http://www.w3.org/2000/svg"
   xmlns="http://www.w3.org/2000/svg"
   xmlns:xlink="http://www.w3.org/1999/xlink"
   xmlns:sodipodi="http://sodipodi.sourceforge.net/DTD/sodipodi-0.dtd"
   xmlns:inkscape="http://www.inkscape.org/namespaces/inkscape"
   height="354.61594pt"
   version="1.1"
   viewBox="0 0 1161.3794 354.61594"
   width="1161.3794pt"
   id="svg2"
   inkscape:version="0.91 r13725"
   sodipodi:docname="demographics_meat_weight-married.svg">
  <metadata
     id="metadata1386">
    <rdf:RDF>
      <cc:Work
         rdf:about="">
        <dc:format>image/svg+xml</dc:format>
        <dc:type
           rdf:resource="http://purl.org/dc/dcmitype/StillImage" />
        <dc:title></dc:title>
      </cc:Work>
    </rdf:RDF>
  </metadata>
  <sodipodi:namedview
     pagecolor="#ffffff"
     bordercolor="#666666"
     borderopacity="1"
     objecttolerance="10"
     gridtolerance="10"
     guidetolerance="10"
     inkscape:pageopacity="0"
     inkscape:pageshadow="2"
     inkscape:window-width="1280"
     inkscape:window-height="755"
     id="namedview1384"
     showgrid="false"
     inkscape:zoom="0.341542"
     inkscape:cx="694.86838"
     inkscape:cy="172.5516"
     inkscape:window-x="0"
     inkscape:window-y="1"
     inkscape:window-maximized="1"
     inkscape:current-layer="svg2"
     fit-margin-top="0"
     fit-margin-left="0"
     fit-margin-right="0"
     fit-margin-bottom="0" />
  <defs
     id="defs4"
     style="stroke-linecap:butt;stroke-linejoin:round">
    <style
       type="text/css"
       id="style6">
*{stroke-linecap:butt;stroke-linejoin:round;}
  </style>
  </defs>
  <g
     style="stroke-linecap:butt;stroke-linejoin:round"
     id="axes_3"
     transform="translate(-135.12062,-937.67599)">
    <g
       style="stroke-linecap:butt;stroke-linejoin:round"
       id="patch_30">
      <path
         inkscape:connector-curvature="0"
         id="path1024"
         style="fill:#e5e5e5;stroke-linecap:butt;stroke-linejoin:round"
         d="m 180,1260 1116,0 0,-319.76471 -1116,0 z" />
    </g>
    <g
       style="stroke-linecap:butt;stroke-linejoin:round"
       id="matplotlib.axis_5">
      <g
         style="stroke-linecap:butt;stroke-linejoin:round"
         id="xtick_19">
        <g
           style="stroke-linecap:butt;stroke-linejoin:round"
           id="line2d_95">
          <g
             style="stroke-linecap:butt;stroke-linejoin:round"
             id="g1029">
            <path
               d="m 366,1260 0,3.5"
               id="use1031"
               style="fill:#555555;stroke:#555555;stroke-width:0.80000001;stroke-linecap:butt;stroke-linejoin:round"
               inkscape:connector-curvature="0" />
          </g>
        </g>
        <g
           style="stroke-linecap:butt;stroke-linejoin:round"
           id="text_34">
          <!-- Adults No Kids -->
          <defs
             id="defs1034">
            <path
               style="stroke-linecap:butt;stroke-linejoin:round"
               inkscape:connector-curvature="0"
               id="DejaVuSans-117"
               d="m 8.5,21.578125 0,33.109375 8.984375,0 0,-32.765625 q 0,-7.765625 3.015625,-11.65625 3.03125,-3.875 9.09375,-3.875 7.265625,0 11.484375,4.640625 4.234375,4.640625 4.234375,12.65625 l 0,31 8.984375,0 0,-54.6875 -8.984375,0 0,8.40625 Q 42.046875,3.421875 37.71875,1 33.40625,-1.421875 27.6875,-1.421875 18.265625,-1.421875 13.375,4.4375 8.5,10.296875 8.5,21.578125 Z M 31.109375,56 Z" />
            <path
               style="stroke-linecap:butt;stroke-linejoin:round"
               inkscape:connector-curvature="0"
               id="DejaVuSans-108"
               d="m 9.421875,75.984375 8.984375,0 L 18.40625,0 9.421875,0 Z" />
            <path
               style="stroke-linecap:butt;stroke-linejoin:round"
               inkscape:connector-curvature="0"
               id="DejaVuSans-115"
               d="m 44.28125,53.078125 0,-8.5 Q 40.484375,46.53125 36.375,47.5 q -4.09375,0.984375 -8.5,0.984375 -6.6875,0 -10.03125,-2.046875 Q 14.5,44.390625 14.5,40.28125 q 0,-3.125 2.390625,-4.90625 2.390625,-1.78125 9.625,-3.390625 l 3.078125,-0.6875 Q 39.15625,29.25 43.1875,25.515625 47.21875,21.78125 47.21875,15.09375 q 0,-7.625 -6.03125,-12.078125 -6.03125,-4.4375 -16.578125,-4.4375 -4.390625,0 -9.15625,0.859375 Q 10.6875,0.296875 5.421875,2 l 0,9.28125 q 4.984375,-2.59375 9.8125,-3.890625 4.828125,-1.28125 9.578125,-1.28125 6.34375,0 9.75,2.171875 3.421875,2.171875 3.421875,6.125 0,3.65625 -2.46875,5.609375 -2.453125,1.953125 -10.8125,3.765625 l -3.125,0.734375 q -8.34375,1.75 -12.0625,5.390625 -3.703125,3.640625 -3.703125,9.984375 0,7.71875 5.46875,11.90625 Q 16.75,56 26.8125,56 q 4.96875,0 9.359375,-0.734375 4.40625,-0.71875 8.109375,-2.1875 z" />
            <path
               style="stroke-linecap:butt;stroke-linejoin:round"
               inkscape:connector-curvature="0"
               id="DejaVuSans-78"
               d="m 9.8125,72.90625 13.28125,0 32.328125,-60.984375 0,60.984375 9.5625,0 0,-72.90625 -13.28125,0 -32.3125,60.984375 L 19.390625,0 9.8125,0 Z" />
          </defs>
          <g
             id="g1040"
             transform="matrix(0.1,0,0,-0.1,329.85859,1274.5984)"
             style="fill:#555555;stroke-linecap:butt;stroke-linejoin:round">
            <path
               d="m 34.1875,63.1875 -13.390625,-36.28125 26.8125,0 z m -5.578125,9.71875 11.1875,0 L 67.578125,0 l -10.25,0 -6.640625,18.703125 -32.859375,0 L 11.1875,0 0.78125,0 Z"
               id="use1042"
               inkscape:connector-curvature="0"
               style="stroke-linecap:butt;stroke-linejoin:round" />
            <path
               d="m 113.79883,46.390625 0,29.59375 8.98437,0 0,-75.984375 -8.98437,0 0,8.203125 q -2.82813,-4.875 -7.15625,-7.25 -4.3125,-2.375 -10.375002,-2.375 -9.90625,0 -16.140625,7.90625 -6.21875,7.921875 -6.21875,20.8125 0,12.890625 6.21875,20.796875 Q 86.361328,56 96.267578,56 q 6.062502,0 10.375002,-2.375 4.32812,-2.359375 7.15625,-7.234375 z M 83.189453,27.296875 q 0,-9.90625 4.078125,-15.546875 4.078125,-5.640625 11.203125,-5.640625 7.124997,0 11.218747,5.640625 4.10938,5.640625 4.10938,15.546875 0,9.90625 -4.10938,15.546875 -4.09375,5.640625 -11.218747,5.640625 -7.125,0 -11.203125,-5.640625 -4.078125,-5.640625 -4.078125,-15.546875 z"
               id="use1044"
               inkscape:connector-curvature="0"
               style="stroke-linecap:butt;stroke-linejoin:round" />
            <use
               height="100%"
               width="100%"
               y="0"
               style="stroke-linecap:butt;stroke-linejoin:round"
               id="use1046"
               xlink:href="#DejaVuSans-117"
               x="131.86914" />
            <use
               height="100%"
               width="100%"
               y="0"
               style="stroke-linecap:butt;stroke-linejoin:round"
               id="use1048"
               xlink:href="#DejaVuSans-108"
               x="195.24805" />
            <path
               d="m 241.34375,70.21875 0,-15.53125 18.5,0 0,-6.984375 -18.5,0 0,-29.6875 q 0,-6.6875 1.82812,-8.59375 Q 245,7.515625 250.625,7.515625 l 9.21875,0 0,-7.515625 -9.21875,0 q -10.40625,0 -14.35938,3.875 -3.95312,3.890625 -3.95312,14.140625 l 0,29.6875 -6.59375,0 0,6.984375 6.59375,0 0,15.53125 z"
               id="use1050"
               inkscape:connector-curvature="0"
               style="stroke-linecap:butt;stroke-linejoin:round" />
            <use
               height="100%"
               width="100%"
               y="0"
               style="stroke-linecap:butt;stroke-linejoin:round"
               id="use1052"
               xlink:href="#DejaVuSans-115"
               x="262.24023" />
            <path
               id="use1054"
               d=""
               inkscape:connector-curvature="0"
               style="stroke-linecap:butt;stroke-linejoin:round" />
            <use
               height="100%"
               width="100%"
               y="0"
               style="stroke-linecap:butt;stroke-linejoin:round"
               id="use1056"
               xlink:href="#DejaVuSans-78"
               x="346.12695" />
            <path
               d="m 451.54102,48.390625 q -7.21875,0 -11.42188,-5.640625 -4.20312,-5.640625 -4.20312,-15.453125 0,-9.8125 4.17187,-15.453125 4.1875,-5.640625 11.45313,-5.640625 7.1875,0 11.375,5.65625 4.20312,5.671875 4.20312,15.4375 0,9.71875 -4.20312,15.40625 -4.1875,5.6875 -11.375,5.6875 z m 0,7.609375 q 11.71875,0 18.40625,-7.625 6.70312,-7.609375 6.70312,-21.078125 0,-13.421875 -6.70312,-21.078125 -6.6875,-7.640625 -18.40625,-7.640625 -11.76563,0 -18.4375,7.640625 -6.65625,7.65625 -6.65625,21.078125 0,13.46875 6.65625,21.078125 6.67187,7.625 18.4375,7.625 z"
               id="use1058"
               inkscape:connector-curvature="0"
               style="stroke-linecap:butt;stroke-linejoin:round" />
            <path
               id="use1060"
               d=""
               inkscape:connector-curvature="0"
               style="stroke-linecap:butt;stroke-linejoin:round" />
            <path
               d="m 523.71289,72.90625 9.85938,0 0,-30.8125 32.71875,30.8125 12.70312,0 L 542.80664,38.921875 581.57227,0 568.58789,0 533.57227,35.109375 533.57227,0 523.71289,0 Z"
               id="use1062"
               inkscape:connector-curvature="0"
               style="stroke-linecap:butt;stroke-linejoin:round" />
            <path
               d="m 588.89844,54.6875 8.98437,0 0,-54.6875 -8.98437,0 z m 0,21.296875 8.98437,0 0,-11.390625 -8.98437,0 z"
               id="use1064"
               inkscape:connector-curvature="0"
               style="stroke-linecap:butt;stroke-linejoin:round" />
            <path
               d="m 652.66602,46.390625 0,29.59375 8.98437,0 0,-75.984375 -8.98437,0 0,8.203125 q -2.82813,-4.875 -7.15625,-7.25 -4.3125,-2.375 -10.375,-2.375 -9.90625,0 -16.14063,7.90625 -6.21875,7.921875 -6.21875,20.8125 0,12.890625 6.21875,20.796875 Q 625.22852,56 635.13477,56 q 6.0625,0 10.375,-2.375 4.32812,-2.359375 7.15625,-7.234375 z m -30.60938,-19.09375 q 0,-9.90625 4.07813,-15.546875 4.07812,-5.640625 11.20312,-5.640625 7.125,0 11.21875,5.640625 4.10938,5.640625 4.10938,15.546875 0,9.90625 -4.10938,15.546875 -4.09375,5.640625 -11.21875,5.640625 -7.125,0 -11.20312,-5.640625 -4.07813,-5.640625 -4.07813,-15.546875 z"
               id="use1066"
               inkscape:connector-curvature="0"
               style="stroke-linecap:butt;stroke-linejoin:round" />
            <use
               height="100%"
               width="100%"
               y="0"
               style="stroke-linecap:butt;stroke-linejoin:round"
               id="use1068"
               xlink:href="#DejaVuSans-115"
               x="670.73633" />
          </g>
        </g>
      </g>
      <g
         style="stroke-linecap:butt;stroke-linejoin:round"
         id="xtick_20">
        <g
           style="stroke-linecap:butt;stroke-linejoin:round"
           id="line2d_96">
          <g
             style="stroke-linecap:butt;stroke-linejoin:round"
             id="g1072">
            <path
               d="m 738,1260 0,3.5"
               id="use1074"
               style="fill:#555555;stroke:#555555;stroke-width:0.80000001;stroke-linecap:butt;stroke-linejoin:round"
               inkscape:connector-curvature="0" />
          </g>
        </g>
        <g
           style="stroke-linecap:butt;stroke-linejoin:round"
           id="text_35">
          <!-- With kids -->
          <defs
             id="defs1077">
            <path
               style="stroke-linecap:butt;stroke-linejoin:round"
               inkscape:connector-curvature="0"
               id="DejaVuSans-87"
               d="m 3.328125,72.90625 9.953125,0 15.328125,-61.625 15.28125,61.625 11.09375,0 15.328125,-61.625 15.28125,61.625 10.015625,0 L 77.296875,0 64.890625,0 49.515625,63.28125 33.984375,0 21.578125,0 Z" />
          </defs>
          <g
             id="g1080"
             transform="matrix(0.1,0,0,-0.1,714.8875,1274.5984)"
             style="fill:#555555;stroke-linecap:butt;stroke-linejoin:round">
            <use
               height="100%"
               width="100%"
               y="0"
               x="0"
               style="stroke-linecap:butt;stroke-linejoin:round"
               id="use1082"
               xlink:href="#DejaVuSans-87" />
            <path
               d="m 108.26758,54.6875 8.98437,0 0,-54.6875 -8.98437,0 z m 0,21.296875 8.98437,0 0,-11.390625 -8.98437,0 z"
               id="use1084"
               inkscape:connector-curvature="0"
               style="stroke-linecap:butt;stroke-linejoin:round" />
            <path
               d="m 144.94141,70.21875 0,-15.53125 18.5,0 0,-6.984375 -18.5,0 0,-29.6875 q 0,-6.6875 1.82812,-8.59375 1.82813,-1.90625 7.45313,-1.90625 l 9.21875,0 0,-7.515625 -9.21875,0 q -10.40625,0 -14.35938,3.875 -3.95312,3.890625 -3.95312,14.140625 l 0,29.6875 -6.59375,0 0,6.984375 6.59375,0 0,15.53125 z"
               id="use1086"
               inkscape:connector-curvature="0"
               style="stroke-linecap:butt;stroke-linejoin:round" />
            <path
               d="m 220.72852,33.015625 0,-33.015625 -8.98438,0 0,32.71875 q 0,7.765625 -3.03125,11.609375 -3.03125,3.859375 -9.07812,3.859375 -7.28125,0 -11.48438,-4.640625 -4.20312,-4.625 -4.20312,-12.640625 l 0,-30.90625 -9.03125,0 0,75.984375 9.03125,0 0,-29.796875 q 3.23437,4.9375 7.59375,7.375 4.375,2.4375 10.09375,2.4375 9.42187,0 14.25,-5.828125 4.84375,-5.828125 4.84375,-17.15625 z"
               id="use1088"
               inkscape:connector-curvature="0"
               style="stroke-linecap:butt;stroke-linejoin:round" />
            <path
               id="use1090"
               d=""
               inkscape:connector-curvature="0"
               style="stroke-linecap:butt;stroke-linejoin:round" />
            <path
               d="m 270.08203,75.984375 9.03125,0 0,-44.875 26.8125,23.578125 11.46875,0 -29,-25.578125 L 318.62891,0 306.91016,0 279.11328,26.703125 279.11328,0 270.08203,0 Z"
               id="use1092"
               inkscape:connector-curvature="0"
               style="stroke-linecap:butt;stroke-linejoin:round" />
            <path
               d="m 328.33594,54.6875 8.98437,0 0,-54.6875 -8.98437,0 z m 0,21.296875 8.98437,0 0,-11.390625 -8.98437,0 z"
               id="use1094"
               inkscape:connector-curvature="0"
               style="stroke-linecap:butt;stroke-linejoin:round" />
            <path
               d="m 392.10352,46.390625 0,29.59375 8.98437,0 0,-75.984375 -8.98437,0 0,8.203125 q -2.82813,-4.875 -7.15625,-7.25 -4.3125,-2.375 -10.375,-2.375 -9.90625,0 -16.14063,7.90625 -6.21875,7.921875 -6.21875,20.8125 0,12.890625 6.21875,20.796875 Q 364.66602,56 374.57227,56 q 6.0625,0 10.375,-2.375 4.32812,-2.359375 7.15625,-7.234375 z m -30.60938,-19.09375 q 0,-9.90625 4.07813,-15.546875 4.07812,-5.640625 11.20312,-5.640625 7.125,0 11.21875,5.640625 4.10938,5.640625 4.10938,15.546875 0,9.90625 -4.10938,15.546875 -4.09375,5.640625 -11.21875,5.640625 -7.125,0 -11.20312,-5.640625 -4.07813,-5.640625 -4.07813,-15.546875 z"
               id="use1096"
               inkscape:connector-curvature="0"
               style="stroke-linecap:butt;stroke-linejoin:round" />
            <use
               height="100%"
               width="100%"
               y="0"
               style="stroke-linecap:butt;stroke-linejoin:round"
               id="use1098"
               xlink:href="#DejaVuSans-115"
               x="410.17383" />
          </g>
        </g>
      </g>
      <g
         style="stroke-linecap:butt;stroke-linejoin:round"
         id="xtick_21">
        <g
           style="stroke-linecap:butt;stroke-linejoin:round"
           id="line2d_97">
          <g
             style="stroke-linecap:butt;stroke-linejoin:round"
             id="g1102">
            <path
               d="m 1110,1260 0,3.5"
               id="use1104"
               style="fill:#555555;stroke:#555555;stroke-width:0.80000001;stroke-linecap:butt;stroke-linejoin:round"
               inkscape:connector-curvature="0" />
          </g>
        </g>
        <g
           style="stroke-linecap:butt;stroke-linejoin:round"
           id="text_36">
          <!-- Single -->
          <defs
             id="defs1107">
            <path
               style="stroke-linecap:butt;stroke-linejoin:round"
               inkscape:connector-curvature="0"
               id="DejaVuSans-83"
               d="m 53.515625,70.515625 0,-9.625 q -5.609375,2.6875 -10.59375,4 -4.984375,1.328125 -9.625,1.328125 -8.046875,0 -12.421875,-3.125 -4.375,-3.125 -4.375,-8.890625 0,-4.84375 2.90625,-7.3125 2.90625,-2.453125 11.015625,-3.96875 L 36.375,41.703125 Q 47.40625,39.59375 52.65625,34.296875 57.90625,29 57.90625,20.125 q 0,-10.609375 -7.109375,-16.078125 -7.09375,-5.46875 -20.8125,-5.46875 -5.171875,0 -11.015625,1.171875 -5.828125,1.171875 -12.078125,3.46875 l 0,10.15625 q 6,-3.359375 11.765625,-5.078125 5.765625,-1.703125 11.328125,-1.703125 8.4375,0 13.03125,3.3125 4.59375,3.328125 4.59375,9.484375 0,5.359375 -3.296875,8.390625 Q 41.015625,30.8125 33.5,32.328125 L 27.484375,33.5 q -11.03125,2.1875 -15.96875,6.875 -4.921875,4.6875 -4.921875,13.046875 0,9.671875 6.8125,15.234375 6.8125,5.5625 18.765625,5.5625 5.140625,0 10.453125,-0.9375 5.328125,-0.921875 10.890625,-2.765625 z" />
          </defs>
          <g
             id="g1110"
             transform="matrix(0.1,0,0,-0.1,1094.6281,1274.5984)"
             style="fill:#555555;stroke-linecap:butt;stroke-linejoin:round">
            <use
               height="100%"
               width="100%"
               y="0"
               x="0"
               style="stroke-linecap:butt;stroke-linejoin:round"
               id="use1112"
               xlink:href="#DejaVuSans-83" />
            <path
               d="m 72.898437,54.6875 8.984375,0 0,-54.6875 -8.984375,0 z m 0,21.296875 8.984375,0 0,-11.390625 -8.984375,0 z"
               id="use1114"
               inkscape:connector-curvature="0"
               style="stroke-linecap:butt;stroke-linejoin:round" />
            <path
               d="m 146.15039,33.015625 0,-33.015625 -8.98437,0 0,32.71875 q 0,7.765625 -3.03125,11.609375 -3.03125,3.859375 -9.07813,3.859375 -7.28125,0 -11.48437,-4.640625 -4.20313,-4.625 -4.20313,-12.640625 l 0,-30.90625 -9.03125,0 0,54.6875 9.03125,0 0,-8.5 q 3.23438,4.9375 7.59375,7.375 4.375,2.4375 10.09375,2.4375 9.42188,0 14.25,-5.828125 4.84375,-5.828125 4.84375,-17.15625 z"
               id="use1116"
               inkscape:connector-curvature="0"
               style="stroke-linecap:butt;stroke-linejoin:round" />
            <path
               d="m 200.04492,27.984375 q 0,9.765625 -4.03125,15.125 -4.01562,5.375 -11.29687,5.375 -7.21875,0 -11.25,-5.375 -4.03125,-5.359375 -4.03125,-15.125 0,-9.71875 4.03125,-15.09375 4.03125,-5.375 11.25,-5.375 7.28125,0 11.29687,5.375 4.03125,5.375 4.03125,15.09375 z M 209.0293,6.78125 q 0,-13.953125 -6.20313,-20.765625 -6.1875,-6.8125 -18.98437,-6.8125 -4.73438,0 -8.9375,0.703125 -4.20313,0.703125 -8.15625,2.171875 l 0,8.734375 q 3.95312,-2.140625 7.8125,-3.15625 3.85937,-1.03125 7.85937,-1.03125 8.84375,0 13.23438,4.609375 4.39062,4.609375 4.39062,13.9375 l 0,4.453125 Q 197.26367,4.78125 192.91992,2.390625 188.57617,0 182.51367,0 172.4668,0 166.31055,7.65625 q -6.15625,7.671875 -6.15625,20.328125 0,12.6875 6.15625,20.34375 Q 172.4668,56 182.51367,56 q 6.0625,0 10.40625,-2.390625 4.34375,-2.390625 7.125,-7.21875 l 0,8.296875 8.98438,0 z"
               id="use1118"
               inkscape:connector-curvature="0"
               style="stroke-linecap:butt;stroke-linejoin:round" />
            <use
               height="100%"
               width="100%"
               y="0"
               style="stroke-linecap:butt;stroke-linejoin:round"
               id="use1120"
               xlink:href="#DejaVuSans-108"
               x="218.11523" />
            <path
               d="m 302.10156,29.59375 0,-4.390625 -41.3125,0 q 0.59375,-9.28125 5.59375,-14.140625 5,-4.859375 13.9375,-4.859375 5.17188,0 10.03125,1.265625 4.85938,1.265625 9.65625,3.8125 l 0,-8.5 q -4.84375,-2.046875 -9.92187,-3.125 -5.07813,-1.078125 -10.29688,-1.078125 -13.09375,0 -20.73437,7.609375 -7.64063,7.625 -7.64063,20.625 0,13.421875 7.25,21.296875 Q 265.91406,56 278.22656,56 q 11.03125,0 17.45313,-7.109375 6.42187,-7.09375 6.42187,-19.296875 z m -8.98437,2.640625 q -0.0937,7.359375 -4.125,11.75 -4.03125,4.40625 -10.67188,4.40625 -7.51562,0 -12.03125,-4.25 -4.51562,-4.25 -5.20312,-11.96875 z"
               id="use1122"
               inkscape:connector-curvature="0"
               style="stroke-linecap:butt;stroke-linejoin:round" />
          </g>
        </g>
      </g>
      <g
         style="stroke-linecap:butt;stroke-linejoin:round"
         id="text_37">
        <!-- Household composition -->
        <defs
           id="defs1125">
          <path
             style="stroke-linecap:butt;stroke-linejoin:round"
             inkscape:connector-curvature="0"
             id="DejaVuSans-72"
             d="m 9.8125,72.90625 9.859375,0 0,-29.890625 35.84375,0 0,29.890625 9.859375,0 0,-72.90625 -9.859375,0 0,34.71875 -35.84375,0 L 19.671875,0 9.8125,0 Z" />
          <path
             style="stroke-linecap:butt;stroke-linejoin:round"
             inkscape:connector-curvature="0"
             id="DejaVuSans-112"
             d="m 18.109375,8.203125 0,-29 -9.03125,0 0,75.484375 9.03125,0 0,-8.296875 q 2.84375,4.875 7.15625,7.234375 Q 29.59375,56 35.59375,56 q 9.96875,0 16.1875,-7.90625 6.234375,-7.90625 6.234375,-20.796875 0,-12.890625 -6.234375,-20.8125 -6.21875,-7.90625 -16.1875,-7.90625 -6,0 -10.328125,2.375 -4.3125,2.375 -7.15625,7.25 z M 48.6875,27.296875 q 0,9.90625 -4.078125,15.546875 -4.078125,5.640625 -11.203125,5.640625 -7.140625,0 -11.21875,-5.640625 -4.078125,-5.640625 -4.078125,-15.546875 0,-9.90625 4.078125,-15.546875 4.078125,-5.640625 11.21875,-5.640625 7.125,0 11.203125,5.640625 4.078125,5.640625 4.078125,15.546875 z" />
        </defs>
        <g
           id="g1129"
           transform="matrix(0.12,0,0,-0.12,667.75969,1289.7963)"
           style="fill:#555555;stroke-linecap:butt;stroke-linejoin:round">
          <use
             height="100%"
             width="100%"
             y="0"
             x="0"
             style="stroke-linecap:butt;stroke-linejoin:round"
             id="use1131"
             xlink:href="#DejaVuSans-72" />
          <path
             d="m 105.80469,48.390625 q -7.218753,0 -11.421878,-5.640625 -4.203125,-5.640625 -4.203125,-15.453125 0,-9.8125 4.171875,-15.453125 4.1875,-5.640625 11.453128,-5.640625 7.1875,0 11.375,5.65625 4.20312,5.671875 4.20312,15.4375 0,9.71875 -4.20312,15.40625 -4.1875,5.6875 -11.375,5.6875 z m 0,7.609375 q 11.71875,0 18.40625,-7.625 6.70312,-7.609375 6.70312,-21.078125 0,-13.421875 -6.70312,-21.078125 -6.6875,-7.640625 -18.40625,-7.640625 -11.765628,0 -18.437503,7.640625 -6.65625,7.65625 -6.65625,21.078125 0,13.46875 6.65625,21.078125 Q 94.039062,56 105.80469,56 Z"
             id="use1133"
             inkscape:connector-curvature="0"
             style="stroke-linecap:butt;stroke-linejoin:round" />
          <use
             height="100%"
             width="100%"
             y="0"
             style="stroke-linecap:butt;stroke-linejoin:round"
             id="use1135"
             xlink:href="#DejaVuSans-117"
             x="136.37695" />
          <use
             height="100%"
             width="100%"
             y="0"
             style="stroke-linecap:butt;stroke-linejoin:round"
             id="use1137"
             xlink:href="#DejaVuSans-115"
             x="199.75586" />
          <path
             d="m 308.05859,29.59375 0,-4.390625 -41.3125,0 q 0.59375,-9.28125 5.59375,-14.140625 5,-4.859375 13.9375,-4.859375 5.17188,0 10.03125,1.265625 4.85938,1.265625 9.65625,3.8125 l 0,-8.5 q -4.84375,-2.046875 -9.92187,-3.125 -5.07813,-1.078125 -10.29688,-1.078125 -13.09375,0 -20.73437,7.609375 -7.64063,7.625 -7.64063,20.625 0,13.421875 7.25,21.296875 Q 271.87109,56 284.18359,56 q 11.03125,0 17.45313,-7.109375 6.42187,-7.09375 6.42187,-19.296875 z m -8.98437,2.640625 q -0.0937,7.359375 -4.125,11.75 -4.03125,4.40625 -10.67188,4.40625 -7.51562,0 -12.03125,-4.25 -4.51562,-4.25 -5.20312,-11.96875 z"
             id="use1139"
             inkscape:connector-curvature="0"
             style="stroke-linecap:butt;stroke-linejoin:round" />
          <path
             d="m 368.26953,33.015625 0,-33.015625 -8.98437,0 0,32.71875 q 0,7.765625 -3.03125,11.609375 -3.03125,3.859375 -9.07813,3.859375 -7.28125,0 -11.48437,-4.640625 -4.20313,-4.625 -4.20313,-12.640625 l 0,-30.90625 -9.03125,0 0,75.984375 9.03125,0 0,-29.796875 q 3.23438,4.9375 7.59375,7.375 4.375,2.4375 10.09375,2.4375 9.42188,0 14.25,-5.828125 4.84375,-5.828125 4.84375,-17.15625 z"
             id="use1141"
             inkscape:connector-curvature="0"
             style="stroke-linecap:butt;stroke-linejoin:round" />
          <path
             d="m 407.36719,48.390625 q -7.21875,0 -11.42188,-5.640625 -4.20312,-5.640625 -4.20312,-15.453125 0,-9.8125 4.17187,-15.453125 4.1875,-5.640625 11.45313,-5.640625 7.1875,0 11.375,5.65625 4.20312,5.671875 4.20312,15.4375 0,9.71875 -4.20312,15.40625 -4.1875,5.6875 -11.375,5.6875 z m 0,7.609375 q 11.71875,0 18.40625,-7.625 6.70312,-7.609375 6.70312,-21.078125 0,-13.421875 -6.70312,-21.078125 -6.6875,-7.640625 -18.40625,-7.640625 -11.76563,0 -18.4375,7.640625 -6.65625,7.65625 -6.65625,21.078125 0,13.46875 6.65625,21.078125 6.67187,7.625 18.4375,7.625 z"
             id="use1143"
             inkscape:connector-curvature="0"
             style="stroke-linecap:butt;stroke-linejoin:round" />
          <use
             height="100%"
             width="100%"
             y="0"
             style="stroke-linecap:butt;stroke-linejoin:round"
             id="use1145"
             xlink:href="#DejaVuSans-108"
             x="437.93945" />
          <path
             d="m 511.12891,46.390625 0,29.59375 8.98437,0 0,-75.984375 -8.98437,0 0,8.203125 q -2.82813,-4.875 -7.15625,-7.25 -4.3125,-2.375 -10.375,-2.375 -9.90625,0 -16.14063,7.90625 -6.21875,7.921875 -6.21875,20.8125 0,12.890625 6.21875,20.796875 Q 483.69141,56 493.59766,56 q 6.0625,0 10.375,-2.375 4.32812,-2.359375 7.15625,-7.234375 z m -30.60938,-19.09375 q 0,-9.90625 4.07813,-15.546875 4.07812,-5.640625 11.20312,-5.640625 7.125,0 11.21875,5.640625 4.10938,5.640625 4.10938,15.546875 0,9.90625 -4.10938,15.546875 -4.09375,5.640625 -11.21875,5.640625 -7.125,0 -11.20312,-5.640625 -4.07813,-5.640625 -4.07813,-15.546875 z"
             id="use1147"
             inkscape:connector-curvature="0"
             style="stroke-linecap:butt;stroke-linejoin:round" />
          <path
             id="use1149"
             d=""
             inkscape:connector-curvature="0"
             style="stroke-linecap:butt;stroke-linejoin:round" />
          <path
             d="m 609.76758,52.59375 0,-8.40625 q -3.8125,2.109375 -7.64063,3.15625 -3.82812,1.046875 -7.73437,1.046875 -8.75,0 -13.59375,-5.546875 -4.82813,-5.53125 -4.82813,-15.546875 0,-10.015625 4.82813,-15.5625 4.84375,-5.53125 13.59375,-5.53125 3.90625,0 7.73437,1.046875 3.82813,1.046875 7.64063,3.15625 l 0,-8.3125 q -3.76563,-1.75 -7.79688,-2.625 -4.01562,-0.890625 -8.5625,-0.890625 -12.35937,0 -19.64062,7.765625 -7.26563,7.765625 -7.26563,20.953125 0,13.375 7.34375,21.03125 Q 581.20508,56 594.00195,56 q 4.14063,0 8.09375,-0.859375 3.95313,-0.84375 7.67188,-2.546875 z"
             id="use1151"
             inkscape:connector-curvature="0"
             style="stroke-linecap:butt;stroke-linejoin:round" />
          <path
             d="m 646.57617,48.390625 q -7.21875,0 -11.42187,-5.640625 -4.20313,-5.640625 -4.20313,-15.453125 0,-9.8125 4.17188,-15.453125 4.1875,-5.640625 11.45312,-5.640625 7.1875,0 11.375,5.65625 4.20313,5.671875 4.20313,15.4375 0,9.71875 -4.20313,15.40625 -4.1875,5.6875 -11.375,5.6875 z m 0,7.609375 q 11.71875,0 18.40625,-7.625 6.70313,-7.609375 6.70313,-21.078125 0,-13.421875 -6.70313,-21.078125 -6.6875,-7.640625 -18.40625,-7.640625 -11.76562,0 -18.4375,7.640625 -6.65625,7.65625 -6.65625,21.078125 0,13.46875 6.65625,21.078125 6.67188,7.625 18.4375,7.625 z"
             id="use1153"
             inkscape:connector-curvature="0"
             style="stroke-linecap:butt;stroke-linejoin:round" />
          <path
             d="m 729.14844,44.1875 q 3.375,6.0625 8.0625,8.9375 4.6875,2.875 11.03125,2.875 8.54687,0 13.1875,-5.984375 4.64062,-5.96875 4.64062,-17 l 0,-33.015625 -9.03125,0 0,32.71875 q 0,7.859375 -2.79687,11.65625 -2.78125,3.8125 -8.48438,3.8125 -6.98437,0 -11.04687,-4.640625 -4.04688,-4.625 -4.04688,-12.640625 l 0,-30.90625 -9.03125,0 0,32.71875 q 0,7.90625 -2.78125,11.6875 -2.78125,3.78125 -8.59375,3.78125 -6.89062,0 -10.95312,-4.65625 -4.04688,-4.65625 -4.04688,-12.625 l 0,-30.90625 -9.03125,0 0,54.6875 9.03125,0 0,-8.5 q 3.07813,5.03125 7.375,7.421875 Q 706.92969,56 712.83594,56 q 5.96875,0 10.14062,-3.03125 4.17188,-3.015625 6.17188,-8.78125 z"
             id="use1155"
             inkscape:connector-curvature="0"
             style="stroke-linecap:butt;stroke-linejoin:round" />
          <use
             height="100%"
             width="100%"
             y="0"
             style="stroke-linecap:butt;stroke-linejoin:round"
             id="use1157"
             xlink:href="#DejaVuSans-112"
             x="774.56055" />
          <path
             d="m 868.64648,48.390625 q -7.21875,0 -11.42187,-5.640625 -4.20313,-5.640625 -4.20313,-15.453125 0,-9.8125 4.17188,-15.453125 4.1875,-5.640625 11.45312,-5.640625 7.1875,0 11.375,5.65625 4.20313,5.671875 4.20313,15.4375 0,9.71875 -4.20313,15.40625 -4.1875,5.6875 -11.375,5.6875 z m 0,7.609375 q 11.71875,0 18.40625,-7.625 6.70313,-7.609375 6.70313,-21.078125 0,-13.421875 -6.70313,-21.078125 -6.6875,-7.640625 -18.40625,-7.640625 -11.76562,0 -18.4375,7.640625 -6.65625,7.65625 -6.65625,21.078125 0,13.46875 6.65625,21.078125 6.67188,7.625 18.4375,7.625 z"
             id="use1159"
             inkscape:connector-curvature="0"
             style="stroke-linecap:butt;stroke-linejoin:round" />
          <use
             height="100%"
             width="100%"
             y="0"
             style="stroke-linecap:butt;stroke-linejoin:round"
             id="use1161"
             xlink:href="#DejaVuSans-115"
             x="899.21875" />
          <path
             d="m 960.74023,54.6875 8.98438,0 0,-54.6875 -8.98438,0 z m 0,21.296875 8.98438,0 0,-11.390625 -8.98438,0 z"
             id="use1163"
             inkscape:connector-curvature="0"
             style="stroke-linecap:butt;stroke-linejoin:round" />
          <path
             d="m 997.41406,70.21875 0,-15.53125 18.50004,0 0,-6.984375 -18.50004,0 0,-29.6875 q 0,-6.6875 1.82813,-8.59375 1.82811,-1.90625 7.45311,-1.90625 l 9.2188,0 0,-7.515625 -9.2188,0 q -10.40624,0 -14.35936,3.875 -3.95313,3.890625 -3.95313,14.140625 l 0,29.6875 -6.59375,0 0,6.984375 6.59375,0 0,15.53125 z"
             id="use1165"
             inkscape:connector-curvature="0"
             style="stroke-linecap:butt;stroke-linejoin:round" />
          <path
             d="m 1027.7324,54.6875 8.9843,0 0,-54.6875 -8.9843,0 z m 0,21.296875 8.9843,0 0,-11.390625 -8.9843,0 z"
             id="use1167"
             inkscape:connector-curvature="0"
             style="stroke-linecap:butt;stroke-linejoin:round" />
          <path
             d="m 1076.7031,48.390625 q -7.2187,0 -11.4218,-5.640625 -4.2032,-5.640625 -4.2032,-15.453125 0,-9.8125 4.1719,-15.453125 4.1875,-5.640625 11.4531,-5.640625 7.1875,0 11.375,5.65625 4.2032,5.671875 4.2032,15.4375 0,9.71875 -4.2032,15.40625 -4.1875,5.6875 -11.375,5.6875 z m 0,7.609375 q 11.7188,0 18.4063,-7.625 6.7031,-7.609375 6.7031,-21.078125 0,-13.421875 -6.7031,-21.078125 -6.6875,-7.640625 -18.4063,-7.640625 -11.7656,0 -18.4375,7.640625 -6.6562,7.65625 -6.6562,21.078125 0,13.46875 6.6562,21.078125 6.6719,7.625 18.4375,7.625 z"
             id="use1169"
             inkscape:connector-curvature="0"
             style="stroke-linecap:butt;stroke-linejoin:round" />
          <path
             d="m 1162.166,33.015625 0,-33.015625 -8.9844,0 0,32.71875 q 0,7.765625 -3.0312,11.609375 -3.0313,3.859375 -9.0781,3.859375 -7.2813,0 -11.4844,-4.640625 -4.2031,-4.625 -4.2031,-12.640625 l 0,-30.90625 -9.0313,0 0,54.6875 9.0313,0 0,-8.5 q 3.2343,4.9375 7.5937,7.375 4.375,2.4375 10.0938,2.4375 9.4218,0 14.25,-5.828125 4.8437,-5.828125 4.8437,-17.15625 z"
             id="use1171"
             inkscape:connector-curvature="0"
             style="stroke-linecap:butt;stroke-linejoin:round" />
        </g>
      </g>
    </g>
    <g
       style="stroke-linecap:butt;stroke-linejoin:round"
       id="matplotlib.axis_6">
      <g
         style="stroke-linecap:butt;stroke-linejoin:round"
         id="ytick_12">
        <g
           style="stroke-linecap:butt;stroke-linejoin:round"
           id="line2d_98">
          <path
             inkscape:connector-curvature="0"
             id="path1176"
             style="fill:none;stroke:#ffffff;stroke-width:0.80000001;stroke-linecap:square;stroke-linejoin:round"
             d="m 180,1260 1116,0"
             clip-path="url(#pe22137f99a)" />
        </g>
        <g
           style="stroke-linecap:butt;stroke-linejoin:round"
           id="line2d_99">
          <g
             style="stroke-linecap:butt;stroke-linejoin:round"
             id="g1179">
            <path
               d="m 180,1260 -3.5,0"
               id="use1181"
               style="fill:#555555;stroke:#555555;stroke-width:0.80000001;stroke-linecap:butt;stroke-linejoin:round"
               inkscape:connector-curvature="0" />
          </g>
        </g>
        <g
           style="stroke-linecap:butt;stroke-linejoin:round"
           id="text_38">
          <!-- 0.00 -->
          <g
             id="g1184"
             transform="matrix(0.1,0,0,-0.1,150.73437,1263.7992)"
             style="fill:#555555;stroke-linecap:butt;stroke-linejoin:round">
            <path
               d="m 31.78125,66.40625 q -7.609375,0 -11.453125,-7.5 Q 16.5,51.421875 16.5,36.375 q 0,-14.984375 3.828125,-22.484375 3.84375,-7.5 11.453125,-7.5 7.671875,0 11.5,7.5 3.84375,7.5 3.84375,22.484375 0,15.046875 -3.84375,22.53125 -3.828125,7.5 -11.5,7.5 z m 0,7.8125 q 12.265625,0 18.734375,-9.703125 6.46875,-9.6875 6.46875,-28.140625 0,-18.40625 -6.46875,-28.109375 -6.46875,-9.6875 -18.734375,-9.6875 -12.25,0 -18.71875,9.6875 Q 6.59375,17.96875 6.59375,36.375 q 0,18.453125 6.46875,28.140625 6.46875,9.703125 18.71875,9.703125 z"
               id="use1186"
               inkscape:connector-curvature="0"
               style="stroke-linecap:butt;stroke-linejoin:round" />
            <path
               d="m 74.310547,12.40625 10.3125,0 0,-12.40625 -10.3125,0 z"
               id="use1188"
               inkscape:connector-curvature="0"
               style="stroke-linecap:butt;stroke-linejoin:round" />
            <path
               d="m 127.19141,66.40625 q -7.60938,0 -11.45313,-7.5 -3.82812,-7.484375 -3.82812,-22.53125 0,-14.984375 3.82812,-22.484375 3.84375,-7.5 11.45313,-7.5 7.67187,0 11.5,7.5 3.84375,7.5 3.84375,22.484375 0,15.046875 -3.84375,22.53125 -3.82813,7.5 -11.5,7.5 z m 0,7.8125 q 12.26562,0 18.73437,-9.703125 6.46875,-9.6875 6.46875,-28.140625 0,-18.40625 -6.46875,-28.109375 -6.46875,-9.6875 -18.73437,-9.6875 -12.25,0 -18.71875,9.6875 -6.46875,9.703125 -6.46875,28.109375 0,18.453125 6.46875,28.140625 6.46875,9.703125 18.71875,9.703125 z"
               id="use1190"
               inkscape:connector-curvature="0"
               style="stroke-linecap:butt;stroke-linejoin:round" />
            <path
               d="m 190.81445,66.40625 q -7.60937,0 -11.45312,-7.5 -3.82813,-7.484375 -3.82813,-22.53125 0,-14.984375 3.82813,-22.484375 3.84375,-7.5 11.45312,-7.5 7.67188,0 11.5,7.5 3.84375,7.5 3.84375,22.484375 0,15.046875 -3.84375,22.53125 -3.82812,7.5 -11.5,7.5 z m 0,7.8125 q 12.26563,0 18.73438,-9.703125 6.46875,-9.6875 6.46875,-28.140625 0,-18.40625 -6.46875,-28.109375 -6.46875,-9.6875 -18.73438,-9.6875 -12.25,0 -18.71875,9.6875 -6.46875,9.703125 -6.46875,28.109375 0,18.453125 6.46875,28.140625 6.46875,9.703125 18.71875,9.703125 z"
               id="use1192"
               inkscape:connector-curvature="0"
               style="stroke-linecap:butt;stroke-linejoin:round" />
          </g>
        </g>
      </g>
      <g
         style="stroke-linecap:butt;stroke-linejoin:round"
         id="ytick_13">
        <g
           style="stroke-linecap:butt;stroke-linejoin:round"
           id="line2d_100">
          <path
             inkscape:connector-curvature="0"
             id="path1196"
             style="fill:none;stroke:#ffffff;stroke-width:0.80000001;stroke-linecap:square;stroke-linejoin:round"
             d="m 180,1196.2597 1116,0"
             clip-path="url(#pe22137f99a)" />
        </g>
        <g
           style="stroke-linecap:butt;stroke-linejoin:round"
           id="line2d_101">
          <g
             style="stroke-linecap:butt;stroke-linejoin:round"
             id="g1199">
            <path
               d="m 180,1196.2598 -3.5,0"
               id="use1201"
               style="fill:#555555;stroke:#555555;stroke-width:0.80000001;stroke-linecap:butt;stroke-linejoin:round"
               inkscape:connector-curvature="0" />
          </g>
        </g>
        <g
           style="stroke-linecap:butt;stroke-linejoin:round"
           id="text_39">
          <!-- 0.02 -->
          <g
             id="g1204"
             transform="matrix(0.1,0,0,-0.1,150.73437,1200.0589)"
             style="fill:#555555;stroke-linecap:butt;stroke-linejoin:round">
            <path
               d="m 31.78125,66.40625 q -7.609375,0 -11.453125,-7.5 Q 16.5,51.421875 16.5,36.375 q 0,-14.984375 3.828125,-22.484375 3.84375,-7.5 11.453125,-7.5 7.671875,0 11.5,7.5 3.84375,7.5 3.84375,22.484375 0,15.046875 -3.84375,22.53125 -3.828125,7.5 -11.5,7.5 z m 0,7.8125 q 12.265625,0 18.734375,-9.703125 6.46875,-9.6875 6.46875,-28.140625 0,-18.40625 -6.46875,-28.109375 -6.46875,-9.6875 -18.734375,-9.6875 -12.25,0 -18.71875,9.6875 Q 6.59375,17.96875 6.59375,36.375 q 0,18.453125 6.46875,28.140625 6.46875,9.703125 18.71875,9.703125 z"
               id="use1206"
               inkscape:connector-curvature="0"
               style="stroke-linecap:butt;stroke-linejoin:round" />
            <path
               d="m 74.310547,12.40625 10.3125,0 0,-12.40625 -10.3125,0 z"
               id="use1208"
               inkscape:connector-curvature="0"
               style="stroke-linecap:butt;stroke-linejoin:round" />
            <path
               d="m 127.19141,66.40625 q -7.60938,0 -11.45313,-7.5 -3.82812,-7.484375 -3.82812,-22.53125 0,-14.984375 3.82812,-22.484375 3.84375,-7.5 11.45313,-7.5 7.67187,0 11.5,7.5 3.84375,7.5 3.84375,22.484375 0,15.046875 -3.84375,22.53125 -3.82813,7.5 -11.5,7.5 z m 0,7.8125 q 12.26562,0 18.73437,-9.703125 6.46875,-9.6875 6.46875,-28.140625 0,-18.40625 -6.46875,-28.109375 -6.46875,-9.6875 -18.73437,-9.6875 -12.25,0 -18.71875,9.6875 -6.46875,9.703125 -6.46875,28.109375 0,18.453125 6.46875,28.140625 6.46875,9.703125 18.71875,9.703125 z"
               id="use1210"
               inkscape:connector-curvature="0"
               style="stroke-linecap:butt;stroke-linejoin:round" />
            <path
               d="m 178.2207,8.296875 34.42188,0 0,-8.296875 -46.28125,0 0,8.296875 q 5.60937,5.8125 15.29687,15.59375 9.70313,9.796875 12.1875,12.640625 4.73438,5.3125 6.60938,9 1.89062,3.6875 1.89062,7.25 0,5.8125 -4.07812,9.46875 -4.07813,3.671875 -10.625,3.671875 -4.64063,0 -9.79688,-1.609375 -5.14062,-1.609375 -11,-4.890625 l 0,9.96875 q 5.95313,2.390625 11.125,3.609375 5.1875,1.21875 9.48438,1.21875 11.32812,0 18.0625,-5.671875 6.73437,-5.65625 6.73437,-15.125 0,-4.5 -1.6875,-8.53125 -1.67187,-4.015625 -6.125,-9.484375 -1.21875,-1.421875 -7.76562,-8.1875 -6.53125,-6.765625 -18.45313,-18.921875 z"
               id="use1212"
               inkscape:connector-curvature="0"
               style="stroke-linecap:butt;stroke-linejoin:round" />
          </g>
        </g>
      </g>
      <g
         style="stroke-linecap:butt;stroke-linejoin:round"
         id="ytick_14">
        <g
           style="stroke-linecap:butt;stroke-linejoin:round"
           id="line2d_102">
          <path
             inkscape:connector-curvature="0"
             id="path1216"
             style="fill:none;stroke:#ffffff;stroke-width:0.80000001;stroke-linecap:square;stroke-linejoin:round"
             d="m 180,1132.5195 1116,0"
             clip-path="url(#pe22137f99a)" />
        </g>
        <g
           style="stroke-linecap:butt;stroke-linejoin:round"
           id="line2d_103">
          <g
             style="stroke-linecap:butt;stroke-linejoin:round"
             id="g1219">
            <path
               d="m 180,1132.5194 -3.5,0"
               id="use1221"
               style="fill:#555555;stroke:#555555;stroke-width:0.80000001;stroke-linecap:butt;stroke-linejoin:round"
               inkscape:connector-curvature="0" />
          </g>
        </g>
        <g
           style="stroke-linecap:butt;stroke-linejoin:round"
           id="text_40">
          <!-- 0.04 -->
          <g
             id="g1224"
             transform="matrix(0.1,0,0,-0.1,150.73437,1136.3187)"
             style="fill:#555555;stroke-linecap:butt;stroke-linejoin:round">
            <path
               d="m 31.78125,66.40625 q -7.609375,0 -11.453125,-7.5 Q 16.5,51.421875 16.5,36.375 q 0,-14.984375 3.828125,-22.484375 3.84375,-7.5 11.453125,-7.5 7.671875,0 11.5,7.5 3.84375,7.5 3.84375,22.484375 0,15.046875 -3.84375,22.53125 -3.828125,7.5 -11.5,7.5 z m 0,7.8125 q 12.265625,0 18.734375,-9.703125 6.46875,-9.6875 6.46875,-28.140625 0,-18.40625 -6.46875,-28.109375 -6.46875,-9.6875 -18.734375,-9.6875 -12.25,0 -18.71875,9.6875 Q 6.59375,17.96875 6.59375,36.375 q 0,18.453125 6.46875,28.140625 6.46875,9.703125 18.71875,9.703125 z"
               id="use1226"
               inkscape:connector-curvature="0"
               style="stroke-linecap:butt;stroke-linejoin:round" />
            <path
               d="m 74.310547,12.40625 10.3125,0 0,-12.40625 -10.3125,0 z"
               id="use1228"
               inkscape:connector-curvature="0"
               style="stroke-linecap:butt;stroke-linejoin:round" />
            <path
               d="m 127.19141,66.40625 q -7.60938,0 -11.45313,-7.5 -3.82812,-7.484375 -3.82812,-22.53125 0,-14.984375 3.82812,-22.484375 3.84375,-7.5 11.45313,-7.5 7.67187,0 11.5,7.5 3.84375,7.5 3.84375,22.484375 0,15.046875 -3.84375,22.53125 -3.82813,7.5 -11.5,7.5 z m 0,7.8125 q 12.26562,0 18.73437,-9.703125 6.46875,-9.6875 6.46875,-28.140625 0,-18.40625 -6.46875,-28.109375 -6.46875,-9.6875 -18.73437,-9.6875 -12.25,0 -18.71875,9.6875 -6.46875,9.703125 -6.46875,28.109375 0,18.453125 6.46875,28.140625 6.46875,9.703125 18.71875,9.703125 z"
               id="use1230"
               inkscape:connector-curvature="0"
               style="stroke-linecap:butt;stroke-linejoin:round" />
            <path
               d="m 196.83008,64.3125 -24.90625,-38.921875 24.90625,0 z m -2.59375,8.59375 12.40625,0 0,-47.515625 10.40625,0 0,-8.203125 -10.40625,0 0,-17.1875 -9.8125,0 0,17.1875 -32.90625,0 0,9.515625 z"
               id="use1232"
               inkscape:connector-curvature="0"
               style="stroke-linecap:butt;stroke-linejoin:round" />
          </g>
        </g>
      </g>
      <g
         style="stroke-linecap:butt;stroke-linejoin:round"
         id="ytick_15">
        <g
           style="stroke-linecap:butt;stroke-linejoin:round"
           id="line2d_104">
          <path
             inkscape:connector-curvature="0"
             id="path1236"
             style="fill:none;stroke:#ffffff;stroke-width:0.80000001;stroke-linecap:square;stroke-linejoin:round"
             d="m 180,1068.7792 1116,0"
             clip-path="url(#pe22137f99a)" />
        </g>
        <g
           style="stroke-linecap:butt;stroke-linejoin:round"
           id="line2d_105">
          <g
             style="stroke-linecap:butt;stroke-linejoin:round"
             id="g1239">
            <path
               d="m 180,1068.7792 -3.5,0"
               id="use1241"
               style="fill:#555555;stroke:#555555;stroke-width:0.80000001;stroke-linecap:butt;stroke-linejoin:round"
               inkscape:connector-curvature="0" />
          </g>
        </g>
        <g
           style="stroke-linecap:butt;stroke-linejoin:round"
           id="text_41">
          <!-- 0.06 -->
          <g
             id="g1244"
             transform="matrix(0.1,0,0,-0.1,150.73437,1072.5784)"
             style="fill:#555555;stroke-linecap:butt;stroke-linejoin:round">
            <path
               d="m 31.78125,66.40625 q -7.609375,0 -11.453125,-7.5 Q 16.5,51.421875 16.5,36.375 q 0,-14.984375 3.828125,-22.484375 3.84375,-7.5 11.453125,-7.5 7.671875,0 11.5,7.5 3.84375,7.5 3.84375,22.484375 0,15.046875 -3.84375,22.53125 -3.828125,7.5 -11.5,7.5 z m 0,7.8125 q 12.265625,0 18.734375,-9.703125 6.46875,-9.6875 6.46875,-28.140625 0,-18.40625 -6.46875,-28.109375 -6.46875,-9.6875 -18.734375,-9.6875 -12.25,0 -18.71875,9.6875 Q 6.59375,17.96875 6.59375,36.375 q 0,18.453125 6.46875,28.140625 6.46875,9.703125 18.71875,9.703125 z"
               id="use1246"
               inkscape:connector-curvature="0"
               style="stroke-linecap:butt;stroke-linejoin:round" />
            <path
               d="m 74.310547,12.40625 10.3125,0 0,-12.40625 -10.3125,0 z"
               id="use1248"
               inkscape:connector-curvature="0"
               style="stroke-linecap:butt;stroke-linejoin:round" />
            <path
               d="m 127.19141,66.40625 q -7.60938,0 -11.45313,-7.5 -3.82812,-7.484375 -3.82812,-22.53125 0,-14.984375 3.82812,-22.484375 3.84375,-7.5 11.45313,-7.5 7.67187,0 11.5,7.5 3.84375,7.5 3.84375,22.484375 0,15.046875 -3.84375,22.53125 -3.82813,7.5 -11.5,7.5 z m 0,7.8125 q 12.26562,0 18.73437,-9.703125 6.46875,-9.6875 6.46875,-28.140625 0,-18.40625 -6.46875,-28.109375 -6.46875,-9.6875 -18.73437,-9.6875 -12.25,0 -18.71875,9.6875 -6.46875,9.703125 -6.46875,28.109375 0,18.453125 6.46875,28.140625 6.46875,9.703125 18.71875,9.703125 z"
               id="use1250"
               inkscape:connector-curvature="0"
               style="stroke-linecap:butt;stroke-linejoin:round" />
            <path
               d="m 192.04883,40.375 q -6.64063,0 -10.53125,-4.546875 -3.875,-4.53125 -3.875,-12.4375 0,-7.859375 3.875,-12.4375 3.89062,-4.5625 10.53125,-4.5625 6.64062,0 10.51562,4.5625 3.875,4.578125 3.875,12.4375 0,7.90625 -3.875,12.4375 -3.875,4.546875 -10.51562,4.546875 z m 19.57812,30.921875 0,-8.984375 q -3.71875,1.75 -7.5,2.671875 -3.78125,0.9375 -7.5,0.9375 -9.76562,0 -14.92187,-6.59375 -5.14063,-6.59375 -5.875,-19.921875 2.875,4.25 7.21875,6.515625 4.35937,2.265625 9.57812,2.265625 10.98438,0 17.35938,-6.671875 6.375,-6.65625 6.375,-18.125 0,-11.234375 -6.64063,-18.03125 -6.64062,-6.78125 -17.67187,-6.78125 -12.65625,0 -19.34375,9.6875 -6.6875,9.703125 -6.6875,28.109375 0,17.28125 8.20312,27.5625 8.20313,10.28125 22.01563,10.28125 3.71875,0 7.5,-0.734375 3.78125,-0.734375 7.89062,-2.1875 z"
               id="use1252"
               inkscape:connector-curvature="0"
               style="stroke-linecap:butt;stroke-linejoin:round" />
          </g>
        </g>
      </g>
      <g
         style="stroke-linecap:butt;stroke-linejoin:round"
         id="ytick_16">
        <g
           style="stroke-linecap:butt;stroke-linejoin:round"
           id="line2d_106">
          <path
             inkscape:connector-curvature="0"
             id="path1256"
             style="fill:none;stroke:#ffffff;stroke-width:0.80000001;stroke-linecap:square;stroke-linejoin:round"
             d="m 180,1005.0389 1116,0"
             clip-path="url(#pe22137f99a)" />
        </g>
        <g
           style="stroke-linecap:butt;stroke-linejoin:round"
           id="line2d_107">
          <g
             style="stroke-linecap:butt;stroke-linejoin:round"
             id="g1259">
            <path
               d="m 180,1005.0389 -3.5,0"
               id="use1261"
               style="fill:#555555;stroke:#555555;stroke-width:0.80000001;stroke-linecap:butt;stroke-linejoin:round"
               inkscape:connector-curvature="0" />
          </g>
        </g>
        <g
           style="stroke-linecap:butt;stroke-linejoin:round"
           id="text_42">
          <!-- 0.08 -->
          <g
             id="g1264"
             transform="matrix(0.1,0,0,-0.1,150.73437,1008.8381)"
             style="fill:#555555;stroke-linecap:butt;stroke-linejoin:round">
            <path
               d="m 31.78125,66.40625 q -7.609375,0 -11.453125,-7.5 Q 16.5,51.421875 16.5,36.375 q 0,-14.984375 3.828125,-22.484375 3.84375,-7.5 11.453125,-7.5 7.671875,0 11.5,7.5 3.84375,7.5 3.84375,22.484375 0,15.046875 -3.84375,22.53125 -3.828125,7.5 -11.5,7.5 z m 0,7.8125 q 12.265625,0 18.734375,-9.703125 6.46875,-9.6875 6.46875,-28.140625 0,-18.40625 -6.46875,-28.109375 -6.46875,-9.6875 -18.734375,-9.6875 -12.25,0 -18.71875,9.6875 Q 6.59375,17.96875 6.59375,36.375 q 0,18.453125 6.46875,28.140625 6.46875,9.703125 18.71875,9.703125 z"
               id="use1266"
               inkscape:connector-curvature="0"
               style="stroke-linecap:butt;stroke-linejoin:round" />
            <path
               d="m 74.310547,12.40625 10.3125,0 0,-12.40625 -10.3125,0 z"
               id="use1268"
               inkscape:connector-curvature="0"
               style="stroke-linecap:butt;stroke-linejoin:round" />
            <path
               d="m 127.19141,66.40625 q -7.60938,0 -11.45313,-7.5 -3.82812,-7.484375 -3.82812,-22.53125 0,-14.984375 3.82812,-22.484375 3.84375,-7.5 11.45313,-7.5 7.67187,0 11.5,7.5 3.84375,7.5 3.84375,22.484375 0,15.046875 -3.84375,22.53125 -3.82813,7.5 -11.5,7.5 z m 0,7.8125 q 12.26562,0 18.73437,-9.703125 6.46875,-9.6875 6.46875,-28.140625 0,-18.40625 -6.46875,-28.109375 -6.46875,-9.6875 -18.73437,-9.6875 -12.25,0 -18.71875,9.6875 -6.46875,9.703125 -6.46875,28.109375 0,18.453125 6.46875,28.140625 6.46875,9.703125 18.71875,9.703125 z"
               id="use1270"
               inkscape:connector-curvature="0"
               style="stroke-linecap:butt;stroke-linejoin:round" />
            <path
               d="m 190.81445,34.625 q -7.03125,0 -11.0625,-3.765625 -4.01562,-3.765625 -4.01562,-10.34375 0,-6.59375 4.01562,-10.359375 4.03125,-3.765625 11.0625,-3.765625 7.03125,0 11.07813,3.78125 4.0625,3.796875 4.0625,10.34375 0,6.578125 -4.03125,10.34375 Q 197.9082,34.625 190.81445,34.625 Z m -9.85937,4.1875 q -6.34375,1.5625 -9.89063,5.90625 -3.53125,4.359375 -3.53125,10.609375 0,8.734375 6.21875,13.8125 6.23438,5.078125 17.0625,5.078125 10.89063,0 17.09375,-5.078125 6.20313,-5.078125 6.20313,-13.8125 0,-6.25 -3.54688,-10.609375 -3.53125,-4.34375 -9.82812,-5.90625 7.125,-1.65625 11.09375,-6.5 3.98437,-4.828125 3.98437,-11.796875 0,-10.609375 -6.46875,-16.28125 -6.46875,-5.65625 -18.53125,-5.65625 -12.04687,0 -18.53125,5.65625 -6.46875,5.671875 -6.46875,16.28125 0,6.96875 4,11.796875 4.01563,4.84375 11.14063,6.5 z m -3.60938,15.578125 q 0,-5.65625 3.53125,-8.828125 3.54688,-3.171875 9.9375,-3.171875 6.35938,0 9.9375,3.171875 3.59375,3.171875 3.59375,8.828125 0,5.671875 -3.59375,8.84375 -3.57812,3.171875 -9.9375,3.171875 -6.39062,0 -9.9375,-3.171875 -3.53125,-3.171875 -3.53125,-8.84375 z"
               id="use1272"
               inkscape:connector-curvature="0"
               style="stroke-linecap:butt;stroke-linejoin:round" />
          </g>
        </g>
      </g>
      <g
         style="stroke-linecap:butt;stroke-linejoin:round"
         id="ytick_17">
        <g
           style="stroke-linecap:butt;stroke-linejoin:round"
           id="line2d_108">
          <path
             inkscape:connector-curvature="0"
             id="path1276"
             style="fill:none;stroke:#ffffff;stroke-width:0.80000001;stroke-linecap:square;stroke-linejoin:round"
             d="m 180,941.29864 1116,0"
             clip-path="url(#pe22137f99a)" />
        </g>
        <g
           style="stroke-linecap:butt;stroke-linejoin:round"
           id="line2d_109">
          <g
             style="stroke-linecap:butt;stroke-linejoin:round"
             id="g1279">
            <path
               d="m 180,941.29865 -3.5,0"
               id="use1281"
               style="fill:#555555;stroke:#555555;stroke-width:0.80000001;stroke-linecap:butt;stroke-linejoin:round"
               inkscape:connector-curvature="0" />
          </g>
        </g>
        <g
           style="stroke-linecap:butt;stroke-linejoin:round"
           id="text_43">
          <!-- 0.10 -->
          <g
             id="g1284"
             transform="matrix(0.1,0,0,-0.1,150.73437,945.09786)"
             style="fill:#555555;stroke-linecap:butt;stroke-linejoin:round">
            <path
               d="m 31.78125,66.40625 q -7.609375,0 -11.453125,-7.5 Q 16.5,51.421875 16.5,36.375 q 0,-14.984375 3.828125,-22.484375 3.84375,-7.5 11.453125,-7.5 7.671875,0 11.5,7.5 3.84375,7.5 3.84375,22.484375 0,15.046875 -3.84375,22.53125 -3.828125,7.5 -11.5,7.5 z m 0,7.8125 q 12.265625,0 18.734375,-9.703125 6.46875,-9.6875 6.46875,-28.140625 0,-18.40625 -6.46875,-28.109375 -6.46875,-9.6875 -18.734375,-9.6875 -12.25,0 -18.71875,9.6875 Q 6.59375,17.96875 6.59375,36.375 q 0,18.453125 6.46875,28.140625 6.46875,9.703125 18.71875,9.703125 z"
               id="use1286"
               inkscape:connector-curvature="0"
               style="stroke-linecap:butt;stroke-linejoin:round" />
            <path
               d="m 74.310547,12.40625 10.3125,0 0,-12.40625 -10.3125,0 z"
               id="use1288"
               inkscape:connector-curvature="0"
               style="stroke-linecap:butt;stroke-linejoin:round" />
            <path
               d="m 107.81641,8.296875 16.10937,0 0,55.625 -17.53125,-3.515625 0,8.984375 17.4375,3.515625 9.85938,0 0,-64.609375 16.10937,0 0,-8.296875 -41.98437,0 z"
               id="use1290"
               inkscape:connector-curvature="0"
               style="stroke-linecap:butt;stroke-linejoin:round" />
            <path
               d="m 190.81445,66.40625 q -7.60937,0 -11.45312,-7.5 -3.82813,-7.484375 -3.82813,-22.53125 0,-14.984375 3.82813,-22.484375 3.84375,-7.5 11.45312,-7.5 7.67188,0 11.5,7.5 3.84375,7.5 3.84375,22.484375 0,15.046875 -3.84375,22.53125 -3.82812,7.5 -11.5,7.5 z m 0,7.8125 q 12.26563,0 18.73438,-9.703125 6.46875,-9.6875 6.46875,-28.140625 0,-18.40625 -6.46875,-28.109375 -6.46875,-9.6875 -18.73438,-9.6875 -12.25,0 -18.71875,9.6875 -6.46875,9.703125 -6.46875,28.109375 0,18.453125 6.46875,28.140625 6.46875,9.703125 18.71875,9.703125 z"
               id="use1292"
               inkscape:connector-curvature="0"
               style="stroke-linecap:butt;stroke-linejoin:round" />
          </g>
        </g>
      </g>
      <g
         style="stroke-linecap:butt;stroke-linejoin:round"
         id="text_44">
        <!-- weight(kg/day) -->
        <g
           id="g1295"
           transform="matrix(0,-0.12,-0.12,0,144.23875,1145.3708)"
           style="fill:#555555;stroke-linecap:butt;stroke-linejoin:round">
          <path
             d="m 4.203125,54.6875 8.984375,0 11.234375,-42.671875 11.171875,42.671875 10.59375,0 11.234375,-42.671875 11.1875,42.671875 8.984375,0 L 63.28125,0 52.6875,0 40.921875,44.828125 29.109375,0 18.5,0 Z"
             id="use1297"
             inkscape:connector-curvature="0"
             style="stroke-linecap:butt;stroke-linejoin:round" />
          <path
             d="m 137.99023,29.59375 0,-4.390625 -41.312496,0 q 0.59375,-9.28125 5.593746,-14.140625 5,-4.859375 13.9375,-4.859375 5.17188,0 10.03125,1.265625 4.85938,1.265625 9.65625,3.8125 l 0,-8.5 q -4.84375,-2.046875 -9.92187,-3.125 -5.07813,-1.078125 -10.29688,-1.078125 -13.09375,0 -20.734371,7.609375 -7.640625,7.625 -7.640625,20.625 0,13.421875 7.25,21.296875 Q 101.80273,56 114.11523,56 q 11.03125,0 17.45313,-7.109375 6.42187,-7.09375 6.42187,-19.296875 z m -8.98437,2.640625 q -0.0937,7.359375 -4.125,11.75 -4.03125,4.40625 -10.67188,4.40625 -7.51562,0 -12.03125,-4.25 -4.515621,-4.25 -5.203121,-11.96875 z"
             id="use1299"
             inkscape:connector-curvature="0"
             style="stroke-linecap:butt;stroke-linejoin:round" />
          <path
             d="m 152.73242,54.6875 8.98438,0 0,-54.6875 -8.98438,0 z m 0,21.296875 8.98438,0 0,-11.390625 -8.98438,0 z"
             id="use1301"
             inkscape:connector-curvature="0"
             style="stroke-linecap:butt;stroke-linejoin:round" />
          <path
             d="m 216.5,27.984375 q 0,9.765625 -4.03125,15.125 -4.01563,5.375 -11.29688,5.375 -7.21875,0 -11.25,-5.375 -4.03125,-5.359375 -4.03125,-15.125 0,-9.71875 4.03125,-15.09375 4.03125,-5.375 11.25,-5.375 7.28125,0 11.29688,5.375 4.03125,5.375 4.03125,15.09375 z M 225.48437,6.78125 q 0,-13.953125 -6.20312,-20.765625 -6.1875,-6.8125 -18.98438,-6.8125 -4.73437,0 -8.9375,0.703125 -4.20312,0.703125 -8.15625,2.171875 l 0,8.734375 q 3.95313,-2.140625 7.8125,-3.15625 3.85938,-1.03125 7.85938,-1.03125 8.84375,0 13.23437,4.609375 Q 216.5,-4.15625 216.5,5.171875 l 0,4.453125 Q 213.71875,4.78125 209.375,2.390625 205.03125,0 198.96875,0 q -10.04688,0 -16.20313,7.65625 -6.15625,7.671875 -6.15625,20.328125 0,12.6875 6.15625,20.34375 Q 188.92187,56 198.96875,56 q 6.0625,0 10.40625,-2.390625 4.34375,-2.390625 7.125,-7.21875 l 0,8.296875 8.98437,0 z"
             id="use1303"
             inkscape:connector-curvature="0"
             style="stroke-linecap:butt;stroke-linejoin:round" />
          <path
             d="m 289.46094,33.015625 0,-33.015625 -8.98438,0 0,32.71875 q 0,7.765625 -3.03125,11.609375 -3.03125,3.859375 -9.07812,3.859375 -7.28125,0 -11.48438,-4.640625 -4.20312,-4.625 -4.20312,-12.640625 l 0,-30.90625 -9.03125,0 0,75.984375 9.03125,0 0,-29.796875 q 3.23437,4.9375 7.59375,7.375 4.375,2.4375 10.09375,2.4375 9.42187,0 14.25,-5.828125 4.84375,-5.828125 4.84375,-17.15625 z"
             id="use1305"
             inkscape:connector-curvature="0"
             style="stroke-linecap:butt;stroke-linejoin:round" />
          <path
             d="m 316.26172,70.21875 0,-15.53125 18.5,0 0,-6.984375 -18.5,0 0,-29.6875 q 0,-6.6875 1.82812,-8.59375 1.82813,-1.90625 7.45313,-1.90625 l 9.21875,0 0,-7.515625 -9.21875,0 q -10.40625,0 -14.35938,3.875 -3.95312,3.890625 -3.95312,14.140625 l 0,29.6875 -6.59375,0 0,6.984375 6.59375,0 0,15.53125 z"
             id="use1307"
             inkscape:connector-curvature="0"
             style="stroke-linecap:butt;stroke-linejoin:round" />
          <path
             d="m 368.1582,75.875 q -6.53125,-11.21875 -9.71875,-22.21875 -3.17187,-10.984375 -3.17187,-22.265625 0,-11.265625 3.20312,-22.328125 3.20313,-11.0625 9.6875,-22.25 l -7.8125,0 q -7.3125,11.484375 -10.95312,22.5625 -3.64063,11.078125 -3.64063,22.015625 0,10.890625 3.60938,21.921875 3.625,11.046875 10.98437,22.5625 z"
             id="use1309"
             inkscape:connector-curvature="0"
             style="stroke-linecap:butt;stroke-linejoin:round" />
          <path
             d="m 385.25,75.984375 9.03125,0 0,-44.875 26.8125,23.578125 11.46875,0 -29,-25.578125 L 433.79687,0 422.07812,0 394.28125,26.703125 394.28125,0 385.25,0 Z"
             id="use1311"
             inkscape:connector-curvature="0"
             style="stroke-linecap:butt;stroke-linejoin:round" />
          <path
             d="m 479.48828,27.984375 q 0,9.765625 -4.03125,15.125 -4.01562,5.375 -11.29687,5.375 -7.21875,0 -11.25,-5.375 -4.03125,-5.359375 -4.03125,-15.125 0,-9.71875 4.03125,-15.09375 4.03125,-5.375 11.25,-5.375 7.28125,0 11.29687,5.375 4.03125,5.375 4.03125,15.09375 z M 488.47266,6.78125 q 0,-13.953125 -6.20313,-20.765625 -6.1875,-6.8125 -18.98437,-6.8125 -4.73438,0 -8.9375,0.703125 -4.20313,0.703125 -8.15625,2.171875 l 0,8.734375 q 3.95312,-2.140625 7.8125,-3.15625 3.85937,-1.03125 7.85937,-1.03125 8.84375,0 13.23438,4.609375 4.39062,4.609375 4.39062,13.9375 l 0,4.453125 Q 476.70703,4.78125 472.36328,2.390625 468.01953,0 461.95703,0 q -10.04687,0 -16.20312,7.65625 -6.15625,7.671875 -6.15625,20.328125 0,12.6875 6.15625,20.34375 Q 451.91016,56 461.95703,56 q 6.0625,0 10.40625,-2.390625 4.34375,-2.390625 7.125,-7.21875 l 0,8.296875 8.98438,0 z"
             id="use1313"
             inkscape:connector-curvature="0"
             style="stroke-linecap:butt;stroke-linejoin:round" />
          <path
             d="m 522.94922,72.90625 8.29687,0 -25.39062,-82.1875 -8.29688,0 z"
             id="use1315"
             inkscape:connector-curvature="0"
             style="stroke-linecap:butt;stroke-linejoin:round" />
          <path
             d="m 576.65625,46.390625 0,29.59375 8.98437,0 0,-75.984375 -8.98437,0 0,8.203125 q -2.82813,-4.875 -7.15625,-7.25 -4.3125,-2.375 -10.375,-2.375 -9.90625,0 -16.14063,7.90625 -6.21875,7.921875 -6.21875,20.8125 0,12.890625 6.21875,20.796875 Q 549.21875,56 559.125,56 q 6.0625,0 10.375,-2.375 4.32812,-2.359375 7.15625,-7.234375 z m -30.60938,-19.09375 q 0,-9.90625 4.07813,-15.546875 4.07812,-5.640625 11.20312,-5.640625 7.125,0 11.21875,5.640625 4.10938,5.640625 4.10938,15.546875 0,9.90625 -4.10938,15.546875 -4.09375,5.640625 -11.21875,5.640625 -7.125,0 -11.20312,-5.640625 -4.07813,-5.640625 -4.07813,-15.546875 z"
             id="use1317"
             inkscape:connector-curvature="0"
             style="stroke-linecap:butt;stroke-linejoin:round" />
          <path
             d="m 629.00781,27.484375 q -10.89062,0 -15.09375,-2.484375 -4.20312,-2.484375 -4.20312,-8.5 0,-4.78125 3.15625,-7.59375 3.15625,-2.796875 8.5625,-2.796875 7.48437,0 12,5.296875 4.51562,5.296875 4.51562,14.078125 l 0,2 z m 17.92188,3.71875 0,-31.203125 -8.98438,0 0,8.296875 q -3.07812,-4.96875 -7.67187,-7.34375 -4.59375,-2.375 -11.23438,-2.375 -8.39062,0 -13.35937,4.71875 -4.95313,4.71875 -4.95313,12.625 0,9.21875 6.17188,13.90625 6.1875,4.6875 18.4375,4.6875 l 12.60937,0 0,0.890625 q 0,6.203125 -4.07812,9.59375 -4.07813,3.390625 -11.45313,3.390625 -4.6875,0 -9.14062,-1.125 -4.4375,-1.125 -8.53125,-3.375 l 0,8.3125 q 4.92187,1.90625 9.5625,2.84375 Q 618.94531,56 623.33594,56 q 11.875,0 17.73437,-6.15625 5.85938,-6.140625 5.85938,-18.640625 z"
             id="use1319"
             inkscape:connector-curvature="0"
             style="stroke-linecap:butt;stroke-linejoin:round" />
          <path
             d="m 688.17773,-5.078125 q -3.79687,-9.765625 -7.42187,-12.734375 -3.60938,-2.984375 -9.65625,-2.984375 l -7.1875,0 0,7.515625 5.28125,0 q 3.70312,0 5.75,1.765625 2.0625,1.75 4.54687,8.296875 l 1.60938,4.09375 -22.10938,53.8125 9.51563,0 17.09375,-42.765625 17.09375,42.765625 9.51562,0 z"
             id="use1321"
             inkscape:connector-curvature="0"
             style="stroke-linecap:butt;stroke-linejoin:round" />
          <path
             d="m 723.20117,75.875 7.8125,0 q 7.3125,-11.515625 10.95313,-22.5625 3.64062,-11.03125 3.64062,-21.921875 0,-10.9375 -3.64062,-22.015625 -3.64063,-11.078125 -10.95313,-22.5625 l -7.8125,0 q 6.48438,11.1875 9.6875,22.25 3.20313,11.0625 3.20313,22.328125 0,11.28125 -3.20313,22.265625 -3.20312,11 -9.6875,22.21875 z"
             id="use1323"
             inkscape:connector-curvature="0"
             style="stroke-linecap:butt;stroke-linejoin:round" />
        </g>
      </g>
    </g>
    <g
       style="stroke-linecap:butt;stroke-linejoin:round"
       id="patch_31">
      <path
         inkscape:connector-curvature="0"
         id="path1326"
         style="fill:#cc5a49;stroke-linecap:butt;stroke-linejoin:round"
         d="m 217.2,1260 297.6,0 0,-155.6706 -297.6,0 z"
         clip-path="url(#pe22137f99a)" />
    </g>
    <g
       style="stroke-linecap:butt;stroke-linejoin:round"
       id="patch_32">
      <path
         inkscape:connector-curvature="0"
         id="path1329"
         style="fill:#4586ac;stroke-linecap:butt;stroke-linejoin:round"
         d="m 589.2,1260 297.6,0 0,-116.6717 -297.6,0 z"
         clip-path="url(#pe22137f99a)" />
    </g>
    <g
       style="stroke-linecap:butt;stroke-linejoin:round"
       id="patch_33">
      <path
         inkscape:connector-curvature="0"
         id="path1332"
         style="fill:#9e97cc;stroke-linecap:butt;stroke-linejoin:round"
         d="m 961.2,1260 297.6,0 0,-278.79393 -297.6,0 z"
         clip-path="url(#pe22137f99a)" />
    </g>
    <g
       style="stroke-linecap:butt;stroke-linejoin:round"
       id="line2d_110">
      <path
         inkscape:connector-curvature="0"
         id="path1335"
         style="fill:none;stroke:#424242;stroke-width:2.70000005;stroke-linecap:square;stroke-linejoin:round"
         d="m 366,1116.3764 0,-24.7495"
         clip-path="url(#pe22137f99a)" />
    </g>
    <g
       style="stroke-linecap:butt;stroke-linejoin:round"
       id="line2d_111">
      <path
         inkscape:connector-curvature="0"
         id="path1338"
         style="fill:none;stroke:#424242;stroke-width:2.70000005;stroke-linecap:square;stroke-linejoin:round"
         d="m 347.4,1116.3764 37.2,0"
         clip-path="url(#pe22137f99a)" />
    </g>
    <g
       style="stroke-linecap:butt;stroke-linejoin:round"
       id="line2d_112">
      <path
         inkscape:connector-curvature="0"
         id="path1341"
         style="fill:none;stroke:#424242;stroke-width:2.70000005;stroke-linecap:square;stroke-linejoin:round"
         d="m 347.4,1091.6269 37.2,0"
         clip-path="url(#pe22137f99a)" />
    </g>
    <g
       style="stroke-linecap:butt;stroke-linejoin:round"
       id="line2d_113">
      <path
         inkscape:connector-curvature="0"
         id="path1344"
         style="fill:none;stroke:#424242;stroke-width:2.70000005;stroke-linecap:square;stroke-linejoin:round"
         d="m 738,1155.7241 0,-24.4852"
         clip-path="url(#pe22137f99a)" />
    </g>
    <g
       style="stroke-linecap:butt;stroke-linejoin:round"
       id="line2d_114">
      <path
         inkscape:connector-curvature="0"
         id="path1347"
         style="fill:none;stroke:#424242;stroke-width:2.70000005;stroke-linecap:square;stroke-linejoin:round"
         d="m 719.4,1155.7241 37.2,0"
         clip-path="url(#pe22137f99a)" />
    </g>
    <g
       style="stroke-linecap:butt;stroke-linejoin:round"
       id="line2d_115">
      <path
         inkscape:connector-curvature="0"
         id="path1350"
         style="fill:none;stroke:#424242;stroke-width:2.70000005;stroke-linecap:square;stroke-linejoin:round"
         d="m 719.4,1131.2389 37.2,0"
         clip-path="url(#pe22137f99a)" />
    </g>
    <g
       style="stroke-linecap:butt;stroke-linejoin:round"
       id="line2d_116">
      <path
         inkscape:connector-curvature="0"
         id="path1353"
         style="fill:none;stroke:#424242;stroke-width:2.70000005;stroke-linecap:square;stroke-linejoin:round"
         d="m 1110,1005.7415 0,-50.27932"
         clip-path="url(#pe22137f99a)" />
    </g>
    <g
       style="stroke-linecap:butt;stroke-linejoin:round"
       id="line2d_117">
      <path
         inkscape:connector-curvature="0"
         id="path1356"
         style="fill:none;stroke:#424242;stroke-width:2.70000005;stroke-linecap:square;stroke-linejoin:round"
         d="m 1091.4,1005.7415 37.2,0"
         clip-path="url(#pe22137f99a)" />
    </g>
    <g
       style="stroke-linecap:butt;stroke-linejoin:round"
       id="line2d_118">
      <path
         inkscape:connector-curvature="0"
         id="path1359"
         style="fill:none;stroke:#424242;stroke-width:2.70000005;stroke-linecap:square;stroke-linejoin:round"
         d="m 1091.4,955.46218 37.2,0"
         clip-path="url(#pe22137f99a)" />
    </g>
    <g
       style="stroke-linecap:butt;stroke-linejoin:round"
       id="patch_34">
      <path
         inkscape:connector-curvature="0"
         id="path1362"
         style="fill:none;stroke:#ffffff;stroke-linecap:square;stroke-linejoin:miter"
         d="m 180,1260 0,-319.76471" />
    </g>
    <g
       style="stroke-linecap:butt;stroke-linejoin:round"
       id="patch_35">
      <path
         inkscape:connector-curvature="0"
         id="path1365"
         style="fill:none;stroke:#ffffff;stroke-linecap:square;stroke-linejoin:miter"
         d="m 1296,1260 0,-319.76471" />
    </g>
    <g
       style="stroke-linecap:butt;stroke-linejoin:round"
       id="patch_36">
      <path
         inkscape:connector-curvature="0"
         id="path1368"
         style="fill:none;stroke:#ffffff;stroke-linecap:square;stroke-linejoin:miter"
         d="m 180,1260 1116,0" />
    </g>
    <g
       style="stroke-linecap:butt;stroke-linejoin:round"
       id="patch_37">
      <path
         inkscape:connector-curvature="0"
         id="path1371"
         style="fill:none;stroke:#ffffff;stroke-linecap:square;stroke-linejoin:miter"
         d="m 180,940.23529 1116,0" />
    </g>
  </g>
  <defs
     id="defs1373">
    <clipPath
       id="p3ede4115b3"
       style="stroke-linecap:butt;stroke-linejoin:round">
      <rect
         height="319.76471"
         width="1116"
         x="180"
         y="172.8"
         id="rect1376"
         style="stroke-linecap:butt;stroke-linejoin:round" />
    </clipPath>
    <clipPath
       id="p68ed190a27"
       style="stroke-linecap:butt;stroke-linejoin:round">
      <rect
         height="319.76471"
         width="1116"
         x="180"
         y="556.51764"
         id="rect1379"
         style="stroke-linecap:butt;stroke-linejoin:round" />
    </clipPath>
    <clipPath
       id="pe22137f99a"
       style="stroke-linecap:butt;stroke-linejoin:round">
      <rect
         height="319.76471"
         width="1116"
         x="180"
         y="940.23529"
         id="rect1382"
         style="stroke-linecap:butt;stroke-linejoin:round" />
    </clipPath>
  </defs>
</svg>
