<?xml version="1.0" encoding="UTF-8" standalone="no"?>
<!-- Created with matplotlib (https://matplotlib.org/) -->

<svg
   xmlns:dc="http://purl.org/dc/elements/1.1/"
   xmlns:cc="http://creativecommons.org/ns#"
   xmlns:rdf="http://www.w3.org/1999/02/22-rdf-syntax-ns#"
   xmlns:svg="http://www.w3.org/2000/svg"
   xmlns="http://www.w3.org/2000/svg"
   xmlns:xlink="http://www.w3.org/1999/xlink"
   xmlns:sodipodi="http://sodipodi.sourceforge.net/DTD/sodipodi-0.dtd"
   xmlns:inkscape="http://www.inkscape.org/namespaces/inkscape"
   height="352.55658pt"
   version="1.1"
   viewBox="0 0 1161.3794 352.55658"
   width="1161.3794pt"
   id="svg2"
   inkscape:version="0.91 r13725"
   sodipodi:docname="demographics_meat_weight-age.svg">
  <metadata
     id="metadata1386">
    <rdf:RDF>
      <cc:Work
         rdf:about="">
        <dc:format>image/svg+xml</dc:format>
        <dc:type
           rdf:resource="http://purl.org/dc/dcmitype/StillImage" />
        <dc:title></dc:title>
      </cc:Work>
    </rdf:RDF>
  </metadata>
  <sodipodi:namedview
     pagecolor="#ffffff"
     bordercolor="#666666"
     borderopacity="1"
     objecttolerance="10"
     gridtolerance="10"
     guidetolerance="10"
     inkscape:pageopacity="0"
     inkscape:pageshadow="2"
     inkscape:window-width="1280"
     inkscape:window-height="755"
     id="namedview1384"
     showgrid="false"
     inkscape:zoom="0.341542"
     inkscape:cx="512.42145"
     inkscape:cy="-228.39282"
     inkscape:window-x="0"
     inkscape:window-y="1"
     inkscape:window-maximized="1"
     inkscape:current-layer="svg2"
     fit-margin-top="0"
     fit-margin-left="0"
     fit-margin-right="0"
     fit-margin-bottom="0" />
  <defs
     id="defs4"
     style="stroke-linecap:butt;stroke-linejoin:round">
    <style
       type="text/css"
       id="style6">
*{stroke-linecap:butt;stroke-linejoin:round;}
  </style>
  </defs>
  <g
     style="stroke-linecap:butt;stroke-linejoin:round"
     id="patch_1"
     transform="translate(-135.12062,-556.01765)">
    <path
       inkscape:connector-curvature="0"
       id="path10"
       style="fill:#ffffff;stroke-linecap:butt;stroke-linejoin:round"
       d="m 0,1440 1440,0 L 1440,0 0,0 Z" />
  </g>
  <g
     style="stroke-linecap:butt;stroke-linejoin:round"
     id="axes_2"
     transform="translate(-135.12062,-556.01765)">
    <g
       style="stroke-linecap:butt;stroke-linejoin:round"
       id="patch_19">
      <path
         inkscape:connector-curvature="0"
         id="path681"
         style="fill:#e5e5e5;stroke-linecap:butt;stroke-linejoin:round"
         d="m 180,876.28235 1116,0 0,-319.7647 -1116,0 z" />
    </g>
    <g
       style="stroke-linecap:butt;stroke-linejoin:round"
       id="matplotlib.axis_3">
      <g
         style="stroke-linecap:butt;stroke-linejoin:round"
         id="xtick_13">
        <g
           style="stroke-linecap:butt;stroke-linejoin:round"
           id="line2d_61">
          <g
             style="stroke-linecap:butt;stroke-linejoin:round"
             id="g686">
            <path
               d="m 273,876.28235 0,3.5"
               id="use688"
               style="fill:#555555;stroke:#555555;stroke-width:0.80000001;stroke-linecap:butt;stroke-linejoin:round"
               inkscape:connector-curvature="0" />
          </g>
        </g>
        <g
           style="stroke-linecap:butt;stroke-linejoin:round"
           id="text_21">
          <!-- 19-24 -->
          <g
             id="g691"
             transform="matrix(0.1,0,0,-0.1,258.47109,890.88079)"
             style="fill:#555555;stroke-linecap:butt;stroke-linejoin:round">
            <path
               d="m 12.40625,8.296875 16.109375,0 0,55.625 -17.53125,-3.515625 0,8.984375 17.4375,3.515625 9.859375,0 0,-64.609375 16.109375,0 0,-8.296875 -41.984375,0 z"
               id="use693"
               inkscape:connector-curvature="0"
               style="stroke-linecap:butt;stroke-linejoin:round" />
            <path
               d="m 74.607422,1.515625 0,8.984375 q 3.71875,-1.765625 7.515625,-2.6875 3.8125,-0.921875 7.484375,-0.921875 9.765625,0 14.906248,6.5625 5.15625,6.5625 5.89063,19.953125 -2.82813,-4.203125 -7.1875,-6.453125 -4.343753,-2.25 -9.609378,-2.25 -10.9375,0 -17.3125,6.609375 -6.375,6.625 -6.375,18.109375 0,11.21875 6.640625,18 6.640625,6.796875 17.671875,6.796875 12.656248,0 19.312498,-9.703125 6.67188,-9.6875 6.67188,-28.140625 0,-17.234375 -8.1875,-27.515625 -8.17188,-10.28125 -21.984378,-10.28125 -3.71875,0 -7.53125,0.734375 -3.796875,0.734375 -7.90625,2.203125 z m 19.625,30.90625 q 6.640628,0 10.515628,4.53125 3.89062,4.546875 3.89062,12.46875 0,7.859375 -3.89062,12.421875 -3.875,4.5625 -10.515628,4.5625 -6.640625,0 -10.515625,-4.5625 -3.875,-4.5625 -3.875,-12.421875 0,-7.921875 3.875,-12.46875 3.875,-4.53125 10.515625,-4.53125 z"
               id="use695"
               inkscape:connector-curvature="0"
               style="stroke-linecap:butt;stroke-linejoin:round" />
            <path
               d="m 132.13672,31.390625 26.3125,0 0,-8 -26.3125,0 z"
               id="use697"
               inkscape:connector-curvature="0"
               style="stroke-linecap:butt;stroke-linejoin:round" />
            <path
               d="m 182.51758,8.296875 34.42187,0 0,-8.296875 -46.28125,0 0,8.296875 q 5.60938,5.8125 15.29688,15.59375 9.70312,9.796875 12.1875,12.640625 4.73437,5.3125 6.60937,9 1.89063,3.6875 1.89063,7.25 0,5.8125 -4.07813,9.46875 -4.07812,3.671875 -10.625,3.671875 -4.64062,0 -9.79687,-1.609375 -5.14063,-1.609375 -11,-4.890625 l 0,9.96875 q 5.95312,2.390625 11.125,3.609375 5.1875,1.21875 9.48437,1.21875 11.32813,0 18.0625,-5.671875 6.73438,-5.65625 6.73438,-15.125 0,-4.5 -1.6875,-8.53125 -1.67188,-4.015625 -6.125,-9.484375 -1.21875,-1.421875 -7.76563,-8.1875 -6.53125,-6.765625 -18.45312,-18.921875 z"
               id="use699"
               inkscape:connector-curvature="0"
               style="stroke-linecap:butt;stroke-linejoin:round" />
            <path
               d="m 264.75,64.3125 -24.90625,-38.921875 24.90625,0 z m -2.59375,8.59375 12.40625,0 0,-47.515625 10.40625,0 0,-8.203125 -10.40625,0 0,-17.1875 -9.8125,0 0,17.1875 -32.90625,0 0,9.515625 z"
               id="use701"
               inkscape:connector-curvature="0"
               style="stroke-linecap:butt;stroke-linejoin:round" />
          </g>
        </g>
      </g>
      <g
         style="stroke-linecap:butt;stroke-linejoin:round"
         id="xtick_14">
        <g
           style="stroke-linecap:butt;stroke-linejoin:round"
           id="line2d_62">
          <g
             style="stroke-linecap:butt;stroke-linejoin:round"
             id="g705">
            <path
               d="m 459,876.28235 0,3.5"
               id="use707"
               style="fill:#555555;stroke:#555555;stroke-width:0.80000001;stroke-linecap:butt;stroke-linejoin:round"
               inkscape:connector-curvature="0" />
          </g>
        </g>
        <g
           style="stroke-linecap:butt;stroke-linejoin:round"
           id="text_22">
          <!-- 25-34 -->
          <g
             id="g710"
             transform="matrix(0.1,0,0,-0.1,444.47109,890.88079)"
             style="fill:#555555;stroke-linecap:butt;stroke-linejoin:round">
            <path
               d="m 19.1875,8.296875 34.421875,0 0,-8.296875 -46.28125,0 0,8.296875 q 5.609375,5.8125 15.296875,15.59375 9.703125,9.796875 12.1875,12.640625 4.734375,5.3125 6.609375,9 1.890625,3.6875 1.890625,7.25 0,5.8125 -4.078125,9.46875 -4.078125,3.671875 -10.625,3.671875 -4.640625,0 -9.796875,-1.609375 -5.140625,-1.609375 -11,-4.890625 l 0,9.96875 Q 13.765625,71.78125 18.9375,73 q 5.1875,1.21875 9.484375,1.21875 11.328125,0 18.0625,-5.671875 6.734375,-5.65625 6.734375,-15.125 0,-4.5 -1.6875,-8.53125 Q 49.859375,40.875 45.40625,35.40625 44.1875,33.984375 37.640625,27.21875 31.109375,20.453125 19.1875,8.296875 Z"
               id="use712"
               inkscape:connector-curvature="0"
               style="stroke-linecap:butt;stroke-linejoin:round" />
            <path
               d="m 74.419922,72.90625 38.718748,0 0,-8.3125 -29.687498,0 0,-17.859375 q 2.140625,0.734375 4.28125,1.09375 2.15625,0.359375 4.3125,0.359375 12.203128,0 19.328128,-6.6875 7.14062,-6.6875 7.14062,-18.109375 0,-11.765625 -7.32812,-18.296875 -7.32813,-6.515625 -20.656253,-6.515625 -4.59375,0 -9.359375,0.78125 -4.75,0.78125 -9.828125,2.34375 l 0,9.921875 q 4.390625,-2.390625 9.078125,-3.5625 4.6875,-1.171875 9.90625,-1.171875 8.453125,0 13.374998,4.4375 4.9375,4.4375 4.9375,12.0625 0,7.609375 -4.9375,12.046875 -4.921873,4.453125 -13.374998,4.453125 -3.953125,0 -7.890625,-0.875 -3.921875,-0.875 -8.015625,-2.734375 z"
               id="use714"
               inkscape:connector-curvature="0"
               style="stroke-linecap:butt;stroke-linejoin:round" />
            <path
               d="m 132.13672,31.390625 26.3125,0 0,-8 -26.3125,0 z"
               id="use716"
               inkscape:connector-curvature="0"
               style="stroke-linecap:butt;stroke-linejoin:round" />
            <path
               d="m 203.9082,39.3125 q 7.07813,-1.515625 11.04688,-6.3125 3.98437,-4.78125 3.98437,-11.8125 0,-10.78125 -7.42187,-16.703125 -7.42188,-5.90625 -21.09375,-5.90625 -4.57813,0 -9.4375,0.90625 -4.85938,0.90625 -10.03125,2.71875 l 0,9.515625 q 4.09375,-2.390625 8.96875,-3.609375 4.89062,-1.21875 10.21875,-1.21875 9.26562,0 14.125,3.65625 4.85937,3.65625 4.85937,10.640625 0,6.453125 -4.51562,10.078125 -4.51563,3.640625 -12.5625,3.640625 l -8.5,0 0,8.109375 8.89062,0 q 7.26563,0 11.125,2.90625 3.85938,2.90625 3.85938,8.375 0,5.609375 -3.98438,8.609375 -3.96875,3.015625 -11.39062,3.015625 -4.0625,0 -8.70313,-0.890625 -4.64062,-0.875 -10.20312,-2.71875 l 0,8.78125 q 5.625,1.5625 10.53125,2.34375 4.90625,0.78125 9.25,0.78125 11.23437,0 17.76562,-5.109375 6.54688,-5.09375 6.54688,-13.78125 0,-6.0625 -3.46875,-10.234375 -3.46875,-4.171875 -9.85938,-5.78125 z"
               id="use718"
               inkscape:connector-curvature="0"
               style="stroke-linecap:butt;stroke-linejoin:round" />
            <path
               d="m 264.75,64.3125 -24.90625,-38.921875 24.90625,0 z m -2.59375,8.59375 12.40625,0 0,-47.515625 10.40625,0 0,-8.203125 -10.40625,0 0,-17.1875 -9.8125,0 0,17.1875 -32.90625,0 0,9.515625 z"
               id="use720"
               inkscape:connector-curvature="0"
               style="stroke-linecap:butt;stroke-linejoin:round" />
          </g>
        </g>
      </g>
      <g
         style="stroke-linecap:butt;stroke-linejoin:round"
         id="xtick_15">
        <g
           style="stroke-linecap:butt;stroke-linejoin:round"
           id="line2d_63">
          <g
             style="stroke-linecap:butt;stroke-linejoin:round"
             id="g724">
            <path
               d="m 645,876.28235 0,3.5"
               id="use726"
               style="fill:#555555;stroke:#555555;stroke-width:0.80000001;stroke-linecap:butt;stroke-linejoin:round"
               inkscape:connector-curvature="0" />
          </g>
        </g>
        <g
           style="stroke-linecap:butt;stroke-linejoin:round"
           id="text_23">
          <!-- 35-44 -->
          <g
             id="g729"
             transform="matrix(0.1,0,0,-0.1,630.47109,890.88079)"
             style="fill:#555555;stroke-linecap:butt;stroke-linejoin:round">
            <path
               d="M 40.578125,39.3125 Q 47.65625,37.796875 51.625,33 q 3.984375,-4.78125 3.984375,-11.8125 0,-10.78125 -7.421875,-16.703125 -7.421875,-5.90625 -21.09375,-5.90625 -4.578125,0 -9.4375,0.90625 -4.859375,0.90625 -10.03125,2.71875 l 0,9.515625 q 4.09375,-2.390625 8.96875,-3.609375 4.890625,-1.21875 10.21875,-1.21875 9.265625,0 14.125,3.65625 4.859375,3.65625 4.859375,10.640625 0,6.453125 -4.515625,10.078125 -4.515625,3.640625 -12.5625,3.640625 l -8.5,0 0,8.109375 8.890625,0 q 7.265625,0 11.125,2.90625 3.859375,2.90625 3.859375,8.375 0,5.609375 -3.984375,8.609375 -3.96875,3.015625 -11.390625,3.015625 -4.0625,0 -8.703125,-0.890625 Q 15.375,64.15625 9.8125,62.3125 l 0,8.78125 q 5.625,1.5625 10.53125,2.34375 4.90625,0.78125 9.25,0.78125 11.234375,0 17.765625,-5.109375 6.546875,-5.09375 6.546875,-13.78125 0,-6.0625 -3.46875,-10.234375 -3.46875,-4.171875 -9.859375,-5.78125 z"
               id="use731"
               inkscape:connector-curvature="0"
               style="stroke-linecap:butt;stroke-linejoin:round" />
            <path
               d="m 74.419922,72.90625 38.718748,0 0,-8.3125 -29.687498,0 0,-17.859375 q 2.140625,0.734375 4.28125,1.09375 2.15625,0.359375 4.3125,0.359375 12.203128,0 19.328128,-6.6875 7.14062,-6.6875 7.14062,-18.109375 0,-11.765625 -7.32812,-18.296875 -7.32813,-6.515625 -20.656253,-6.515625 -4.59375,0 -9.359375,0.78125 -4.75,0.78125 -9.828125,2.34375 l 0,9.921875 q 4.390625,-2.390625 9.078125,-3.5625 4.6875,-1.171875 9.90625,-1.171875 8.453125,0 13.374998,4.4375 4.9375,4.4375 4.9375,12.0625 0,7.609375 -4.9375,12.046875 -4.921873,4.453125 -13.374998,4.453125 -3.953125,0 -7.890625,-0.875 -3.921875,-0.875 -8.015625,-2.734375 z"
               id="use733"
               inkscape:connector-curvature="0"
               style="stroke-linecap:butt;stroke-linejoin:round" />
            <path
               d="m 132.13672,31.390625 26.3125,0 0,-8 -26.3125,0 z"
               id="use735"
               inkscape:connector-curvature="0"
               style="stroke-linecap:butt;stroke-linejoin:round" />
            <path
               d="m 201.12695,64.3125 -24.90625,-38.921875 24.90625,0 z m -2.59375,8.59375 12.40625,0 0,-47.515625 10.40625,0 0,-8.203125 -10.40625,0 0,-17.1875 -9.8125,0 0,17.1875 -32.90625,0 0,9.515625 z"
               id="use737"
               inkscape:connector-curvature="0"
               style="stroke-linecap:butt;stroke-linejoin:round" />
            <path
               d="m 264.75,64.3125 -24.90625,-38.921875 24.90625,0 z m -2.59375,8.59375 12.40625,0 0,-47.515625 10.40625,0 0,-8.203125 -10.40625,0 0,-17.1875 -9.8125,0 0,17.1875 -32.90625,0 0,9.515625 z"
               id="use739"
               inkscape:connector-curvature="0"
               style="stroke-linecap:butt;stroke-linejoin:round" />
          </g>
        </g>
      </g>
      <g
         style="stroke-linecap:butt;stroke-linejoin:round"
         id="xtick_16">
        <g
           style="stroke-linecap:butt;stroke-linejoin:round"
           id="line2d_64">
          <g
             style="stroke-linecap:butt;stroke-linejoin:round"
             id="g743">
            <path
               d="m 831,876.28235 0,3.5"
               id="use745"
               style="fill:#555555;stroke:#555555;stroke-width:0.80000001;stroke-linecap:butt;stroke-linejoin:round"
               inkscape:connector-curvature="0" />
          </g>
        </g>
        <g
           style="stroke-linecap:butt;stroke-linejoin:round"
           id="text_24">
          <!-- 45-54 -->
          <g
             id="g748"
             transform="matrix(0.1,0,0,-0.1,816.47109,890.88079)"
             style="fill:#555555;stroke-linecap:butt;stroke-linejoin:round">
            <path
               d="m 37.796875,64.3125 -24.90625,-38.921875 24.90625,0 z m -2.59375,8.59375 12.40625,0 0,-47.515625 10.40625,0 0,-8.203125 -10.40625,0 0,-17.1875 -9.8125,0 0,17.1875 -32.90625,0 0,9.515625 z"
               id="use750"
               inkscape:connector-curvature="0"
               style="stroke-linecap:butt;stroke-linejoin:round" />
            <path
               d="m 74.419922,72.90625 38.718748,0 0,-8.3125 -29.687498,0 0,-17.859375 q 2.140625,0.734375 4.28125,1.09375 2.15625,0.359375 4.3125,0.359375 12.203128,0 19.328128,-6.6875 7.14062,-6.6875 7.14062,-18.109375 0,-11.765625 -7.32812,-18.296875 -7.32813,-6.515625 -20.656253,-6.515625 -4.59375,0 -9.359375,0.78125 -4.75,0.78125 -9.828125,2.34375 l 0,9.921875 q 4.390625,-2.390625 9.078125,-3.5625 4.6875,-1.171875 9.90625,-1.171875 8.453125,0 13.374998,4.4375 4.9375,4.4375 4.9375,12.0625 0,7.609375 -4.9375,12.046875 -4.921873,4.453125 -13.374998,4.453125 -3.953125,0 -7.890625,-0.875 -3.921875,-0.875 -8.015625,-2.734375 z"
               id="use752"
               inkscape:connector-curvature="0"
               style="stroke-linecap:butt;stroke-linejoin:round" />
            <path
               d="m 132.13672,31.390625 26.3125,0 0,-8 -26.3125,0 z"
               id="use754"
               inkscape:connector-curvature="0"
               style="stroke-linecap:butt;stroke-linejoin:round" />
            <path
               d="m 174.12695,72.90625 38.71875,0 0,-8.3125 -29.6875,0 0,-17.859375 q 2.14063,0.734375 4.28125,1.09375 2.15625,0.359375 4.3125,0.359375 12.20313,0 19.32813,-6.6875 7.14062,-6.6875 7.14062,-18.109375 0,-11.765625 -7.32812,-18.296875 -7.32813,-6.515625 -20.65625,-6.515625 -4.59375,0 -9.35938,0.78125 -4.75,0.78125 -9.82812,2.34375 l 0,9.921875 q 4.39062,-2.390625 9.07812,-3.5625 4.6875,-1.171875 9.90625,-1.171875 8.45313,0 13.375,4.4375 4.9375,4.4375 4.9375,12.0625 0,7.609375 -4.9375,12.046875 -4.92187,4.453125 -13.375,4.453125 -3.95312,0 -7.89062,-0.875 -3.92188,-0.875 -8.01563,-2.734375 z"
               id="use756"
               inkscape:connector-curvature="0"
               style="stroke-linecap:butt;stroke-linejoin:round" />
            <path
               d="m 264.75,64.3125 -24.90625,-38.921875 24.90625,0 z m -2.59375,8.59375 12.40625,0 0,-47.515625 10.40625,0 0,-8.203125 -10.40625,0 0,-17.1875 -9.8125,0 0,17.1875 -32.90625,0 0,9.515625 z"
               id="use758"
               inkscape:connector-curvature="0"
               style="stroke-linecap:butt;stroke-linejoin:round" />
          </g>
        </g>
      </g>
      <g
         style="stroke-linecap:butt;stroke-linejoin:round"
         id="xtick_17">
        <g
           style="stroke-linecap:butt;stroke-linejoin:round"
           id="line2d_65">
          <g
             style="stroke-linecap:butt;stroke-linejoin:round"
             id="g762">
            <path
               d="m 1017,876.28235 0,3.5"
               id="use764"
               style="fill:#555555;stroke:#555555;stroke-width:0.80000001;stroke-linecap:butt;stroke-linejoin:round"
               inkscape:connector-curvature="0" />
          </g>
        </g>
        <g
           style="stroke-linecap:butt;stroke-linejoin:round"
           id="text_25">
          <!-- 55-64 -->
          <g
             id="g767"
             transform="matrix(0.1,0,0,-0.1,1002.4711,890.88079)"
             style="fill:#555555;stroke-linecap:butt;stroke-linejoin:round">
            <path
               d="m 10.796875,72.90625 38.71875,0 0,-8.3125 -29.6875,0 0,-17.859375 q 2.140625,0.734375 4.28125,1.09375 2.15625,0.359375 4.3125,0.359375 Q 40.625,48.1875 47.75,41.5 54.890625,34.8125 54.890625,23.390625 54.890625,11.625 47.5625,5.09375 40.234375,-1.421875 26.90625,-1.421875 q -4.59375,0 -9.359375,0.78125 -4.75,0.78125 -9.828125,2.34375 l 0,9.921875 q 4.390625,-2.390625 9.078125,-3.5625 4.6875,-1.171875 9.90625,-1.171875 8.453125,0 13.375,4.4375 4.9375,4.4375 4.9375,12.0625 0,7.609375 -4.9375,12.046875 -4.921875,4.453125 -13.375,4.453125 -3.953125,0 -7.890625,-0.875 -3.921875,-0.875 -8.015625,-2.734375 z"
               id="use769"
               inkscape:connector-curvature="0"
               style="stroke-linecap:butt;stroke-linejoin:round" />
            <path
               d="m 74.419922,72.90625 38.718748,0 0,-8.3125 -29.687498,0 0,-17.859375 q 2.140625,0.734375 4.28125,1.09375 2.15625,0.359375 4.3125,0.359375 12.203128,0 19.328128,-6.6875 7.14062,-6.6875 7.14062,-18.109375 0,-11.765625 -7.32812,-18.296875 -7.32813,-6.515625 -20.656253,-6.515625 -4.59375,0 -9.359375,0.78125 -4.75,0.78125 -9.828125,2.34375 l 0,9.921875 q 4.390625,-2.390625 9.078125,-3.5625 4.6875,-1.171875 9.90625,-1.171875 8.453125,0 13.374998,4.4375 4.9375,4.4375 4.9375,12.0625 0,7.609375 -4.9375,12.046875 -4.921873,4.453125 -13.374998,4.453125 -3.953125,0 -7.890625,-0.875 -3.921875,-0.875 -8.015625,-2.734375 z"
               id="use771"
               inkscape:connector-curvature="0"
               style="stroke-linecap:butt;stroke-linejoin:round" />
            <path
               d="m 132.13672,31.390625 26.3125,0 0,-8 -26.3125,0 z"
               id="use773"
               inkscape:connector-curvature="0"
               style="stroke-linecap:butt;stroke-linejoin:round" />
            <path
               d="m 196.3457,40.375 q -6.64062,0 -10.53125,-4.546875 -3.875,-4.53125 -3.875,-12.4375 0,-7.859375 3.875,-12.4375 3.89063,-4.5625 10.53125,-4.5625 6.64063,0 10.51563,4.5625 3.875,4.578125 3.875,12.4375 0,7.90625 -3.875,12.4375 -3.875,4.546875 -10.51563,4.546875 z m 19.57813,30.921875 0,-8.984375 q -3.71875,1.75 -7.5,2.671875 -3.78125,0.9375 -7.5,0.9375 -9.76563,0 -14.92188,-6.59375 -5.14062,-6.59375 -5.875,-19.921875 2.875,4.25 7.21875,6.515625 4.35938,2.265625 9.57813,2.265625 10.98437,0 17.35937,-6.671875 6.375,-6.65625 6.375,-18.125 0,-11.234375 -6.64062,-18.03125 -6.64063,-6.78125 -17.67188,-6.78125 -12.65625,0 -19.34375,9.6875 -6.6875,9.703125 -6.6875,28.109375 0,17.28125 8.20313,27.5625 8.20312,10.28125 22.01562,10.28125 3.71875,0 7.5,-0.734375 3.78125,-0.734375 7.89063,-2.1875 z"
               id="use775"
               inkscape:connector-curvature="0"
               style="stroke-linecap:butt;stroke-linejoin:round" />
            <path
               d="m 264.75,64.3125 -24.90625,-38.921875 24.90625,0 z m -2.59375,8.59375 12.40625,0 0,-47.515625 10.40625,0 0,-8.203125 -10.40625,0 0,-17.1875 -9.8125,0 0,17.1875 -32.90625,0 0,9.515625 z"
               id="use777"
               inkscape:connector-curvature="0"
               style="stroke-linecap:butt;stroke-linejoin:round" />
          </g>
        </g>
      </g>
      <g
         style="stroke-linecap:butt;stroke-linejoin:round"
         id="xtick_18">
        <g
           style="stroke-linecap:butt;stroke-linejoin:round"
           id="line2d_66">
          <g
             style="stroke-linecap:butt;stroke-linejoin:round"
             id="g781">
            <path
               d="m 1203,876.28235 0,3.5"
               id="use783"
               style="fill:#555555;stroke:#555555;stroke-width:0.80000001;stroke-linecap:butt;stroke-linejoin:round"
               inkscape:connector-curvature="0" />
          </g>
        </g>
        <g
           style="stroke-linecap:butt;stroke-linejoin:round"
           id="text_26">
          <!-- 65+ -->
          <g
             id="g786"
             transform="matrix(0.1,0,0,-0.1,1192.4477,890.88079)"
             style="fill:#555555;stroke-linecap:butt;stroke-linejoin:round">
            <path
               d="m 33.015625,40.375 q -6.640625,0 -10.53125,-4.546875 -3.875,-4.53125 -3.875,-12.4375 0,-7.859375 3.875,-12.4375 3.890625,-4.5625 10.53125,-4.5625 6.640625,0 10.515625,4.5625 3.875,4.578125 3.875,12.4375 0,7.90625 -3.875,12.4375 Q 39.65625,40.375 33.015625,40.375 Z m 19.578125,30.921875 0,-8.984375 q -3.71875,1.75 -7.5,2.671875 -3.78125,0.9375 -7.5,0.9375 -9.765625,0 -14.921875,-6.59375 -5.140625,-6.59375 -5.875,-19.921875 2.875,4.25 7.21875,6.515625 4.359375,2.265625 9.578125,2.265625 10.984375,0 17.359375,-6.671875 6.375,-6.65625 6.375,-18.125 0,-11.234375 -6.640625,-18.03125 -6.640625,-6.78125 -17.671875,-6.78125 -12.65625,0 -19.34375,9.6875 -6.6875,9.703125 -6.6875,28.109375 0,17.28125 8.203125,27.5625 8.203125,10.28125 22.015625,10.28125 3.71875,0 7.5,-0.734375 3.78125,-0.734375 7.890625,-2.1875 z"
               id="use788"
               inkscape:connector-curvature="0"
               style="stroke-linecap:butt;stroke-linejoin:round" />
            <path
               d="m 74.419922,72.90625 38.718748,0 0,-8.3125 -29.687498,0 0,-17.859375 q 2.140625,0.734375 4.28125,1.09375 2.15625,0.359375 4.3125,0.359375 12.203128,0 19.328128,-6.6875 7.14062,-6.6875 7.14062,-18.109375 0,-11.765625 -7.32812,-18.296875 -7.32813,-6.515625 -20.656253,-6.515625 -4.59375,0 -9.359375,0.78125 -4.75,0.78125 -9.828125,2.34375 l 0,9.921875 q 4.390625,-2.390625 9.078125,-3.5625 4.6875,-1.171875 9.90625,-1.171875 8.453125,0 13.374998,4.4375 4.9375,4.4375 4.9375,12.0625 0,7.609375 -4.9375,12.046875 -4.921873,4.453125 -13.374998,4.453125 -3.953125,0 -7.890625,-0.875 -3.921875,-0.875 -8.015625,-2.734375 z"
               id="use790"
               inkscape:connector-curvature="0"
               style="stroke-linecap:butt;stroke-linejoin:round" />
            <path
               d="m 173.24609,62.703125 0,-27.203125 27.1875,0 0,-8.296875 -27.1875,0 0,-27.203125 -8.20312,0 0,27.203125 -27.20313,0 0,8.296875 27.20313,0 0,27.203125 z"
               id="use792"
               inkscape:connector-curvature="0"
               style="stroke-linecap:butt;stroke-linejoin:round" />
          </g>
        </g>
      </g>
      <g
         style="stroke-linecap:butt;stroke-linejoin:round"
         id="text_27">
        <!-- Age -->
        <defs
           id="defs795">
          <path
             style="stroke-linecap:butt;stroke-linejoin:round"
             inkscape:connector-curvature="0"
             id="DejaVuSans-65"
             d="m 34.1875,63.1875 -13.390625,-36.28125 26.8125,0 z m -5.578125,9.71875 11.1875,0 L 67.578125,0 l -10.25,0 -6.640625,18.703125 -32.859375,0 L 11.1875,0 0.78125,0 Z" />
        </defs>
        <g
           id="g798"
           transform="matrix(0.12,0,0,-0.12,726.39469,906.0786)"
           style="fill:#555555;stroke-linecap:butt;stroke-linejoin:round">
          <use
             height="100%"
             width="100%"
             y="0"
             x="0"
             style="stroke-linecap:butt;stroke-linejoin:round"
             id="use800"
             xlink:href="#DejaVuSans-65" />
          <path
             d="m 113.81445,27.984375 q 0,9.765625 -4.03125,15.125 -4.01562,5.375 -11.296872,5.375 -7.21875,0 -11.25,-5.375 -4.03125,-5.359375 -4.03125,-15.125 0,-9.71875 4.03125,-15.09375 4.03125,-5.375 11.25,-5.375 7.281252,0 11.296872,5.375 4.03125,5.375 4.03125,15.09375 z M 122.79883,6.78125 q 0,-13.953125 -6.20313,-20.765625 -6.1875,-6.8125 -18.984372,-6.8125 -4.734375,0 -8.9375,0.703125 -4.203125,0.703125 -8.15625,2.171875 l 0,8.734375 q 3.953125,-2.140625 7.8125,-3.15625 3.859375,-1.03125 7.859375,-1.03125 8.843747,0 13.234377,4.609375 4.39062,4.609375 4.39062,13.9375 l 0,4.453125 Q 111.0332,4.78125 106.68945,2.390625 102.3457,0 96.283203,0 86.236328,0 80.080078,7.65625 q -6.15625,7.671875 -6.15625,20.328125 0,12.6875 6.15625,20.34375 Q 86.236328,56 96.283203,56 q 6.062497,0 10.406247,-2.390625 4.34375,-2.390625 7.125,-7.21875 l 0,8.296875 8.98438,0 z"
             id="use802"
             inkscape:connector-curvature="0"
             style="stroke-linecap:butt;stroke-linejoin:round" />
          <path
             d="m 188.08789,29.59375 0,-4.390625 -41.3125,0 q 0.59375,-9.28125 5.59375,-14.140625 5,-4.859375 13.9375,-4.859375 5.17188,0 10.03125,1.265625 4.85938,1.265625 9.65625,3.8125 l 0,-8.5 q -4.84375,-2.046875 -9.92187,-3.125 -5.07813,-1.078125 -10.29688,-1.078125 -13.09375,0 -20.73437,7.609375 -7.64063,7.625 -7.64063,20.625 0,13.421875 7.25,21.296875 Q 151.90039,56 164.21289,56 q 11.03125,0 17.45313,-7.109375 6.42187,-7.09375 6.42187,-19.296875 z m -8.98437,2.640625 q -0.0937,7.359375 -4.125,11.75 -4.03125,4.40625 -10.67188,4.40625 -7.51562,0 -12.03125,-4.25 -4.51562,-4.25 -5.20312,-11.96875 z"
             id="use804"
             inkscape:connector-curvature="0"
             style="stroke-linecap:butt;stroke-linejoin:round" />
        </g>
      </g>
    </g>
    <g
       style="stroke-linecap:butt;stroke-linejoin:round"
       id="matplotlib.axis_4">
      <g
         style="stroke-linecap:butt;stroke-linejoin:round"
         id="ytick_7">
        <g
           style="stroke-linecap:butt;stroke-linejoin:round"
           id="line2d_67">
          <path
             inkscape:connector-curvature="0"
             id="path809"
             style="fill:none;stroke:#ffffff;stroke-width:0.80000001;stroke-linecap:square;stroke-linejoin:round"
             d="m 180,876.28235 1116,0"
             clip-path="url(#p68ed190a27)" />
        </g>
        <g
           style="stroke-linecap:butt;stroke-linejoin:round"
           id="line2d_68">
          <g
             style="stroke-linecap:butt;stroke-linejoin:round"
             id="g812">
            <path
               d="m 180,876.28235 -3.5,0"
               id="use814"
               style="fill:#555555;stroke:#555555;stroke-width:0.80000001;stroke-linecap:butt;stroke-linejoin:round"
               inkscape:connector-curvature="0" />
          </g>
        </g>
        <g
           style="stroke-linecap:butt;stroke-linejoin:round"
           id="text_28">
          <!-- 0.00 -->
          <g
             id="g817"
             transform="matrix(0.1,0,0,-0.1,150.73437,880.08157)"
             style="fill:#555555;stroke-linecap:butt;stroke-linejoin:round">
            <path
               d="m 31.78125,66.40625 q -7.609375,0 -11.453125,-7.5 Q 16.5,51.421875 16.5,36.375 q 0,-14.984375 3.828125,-22.484375 3.84375,-7.5 11.453125,-7.5 7.671875,0 11.5,7.5 3.84375,7.5 3.84375,22.484375 0,15.046875 -3.84375,22.53125 -3.828125,7.5 -11.5,7.5 z m 0,7.8125 q 12.265625,0 18.734375,-9.703125 6.46875,-9.6875 6.46875,-28.140625 0,-18.40625 -6.46875,-28.109375 -6.46875,-9.6875 -18.734375,-9.6875 -12.25,0 -18.71875,9.6875 Q 6.59375,17.96875 6.59375,36.375 q 0,18.453125 6.46875,28.140625 6.46875,9.703125 18.71875,9.703125 z"
               id="use819"
               inkscape:connector-curvature="0"
               style="stroke-linecap:butt;stroke-linejoin:round" />
            <path
               d="m 74.310547,12.40625 10.3125,0 0,-12.40625 -10.3125,0 z"
               id="use821"
               inkscape:connector-curvature="0"
               style="stroke-linecap:butt;stroke-linejoin:round" />
            <path
               d="m 127.19141,66.40625 q -7.60938,0 -11.45313,-7.5 -3.82812,-7.484375 -3.82812,-22.53125 0,-14.984375 3.82812,-22.484375 3.84375,-7.5 11.45313,-7.5 7.67187,0 11.5,7.5 3.84375,7.5 3.84375,22.484375 0,15.046875 -3.84375,22.53125 -3.82813,7.5 -11.5,7.5 z m 0,7.8125 q 12.26562,0 18.73437,-9.703125 6.46875,-9.6875 6.46875,-28.140625 0,-18.40625 -6.46875,-28.109375 -6.46875,-9.6875 -18.73437,-9.6875 -12.25,0 -18.71875,9.6875 -6.46875,9.703125 -6.46875,28.109375 0,18.453125 6.46875,28.140625 6.46875,9.703125 18.71875,9.703125 z"
               id="use823"
               inkscape:connector-curvature="0"
               style="stroke-linecap:butt;stroke-linejoin:round" />
            <path
               d="m 190.81445,66.40625 q -7.60937,0 -11.45312,-7.5 -3.82813,-7.484375 -3.82813,-22.53125 0,-14.984375 3.82813,-22.484375 3.84375,-7.5 11.45312,-7.5 7.67188,0 11.5,7.5 3.84375,7.5 3.84375,22.484375 0,15.046875 -3.84375,22.53125 -3.82812,7.5 -11.5,7.5 z m 0,7.8125 q 12.26563,0 18.73438,-9.703125 6.46875,-9.6875 6.46875,-28.140625 0,-18.40625 -6.46875,-28.109375 -6.46875,-9.6875 -18.73438,-9.6875 -12.25,0 -18.71875,9.6875 -6.46875,9.703125 -6.46875,28.109375 0,18.453125 6.46875,28.140625 6.46875,9.703125 18.71875,9.703125 z"
               id="use825"
               inkscape:connector-curvature="0"
               style="stroke-linecap:butt;stroke-linejoin:round" />
          </g>
        </g>
      </g>
      <g
         style="stroke-linecap:butt;stroke-linejoin:round"
         id="ytick_8">
        <g
           style="stroke-linecap:butt;stroke-linejoin:round"
           id="line2d_69">
          <path
             inkscape:connector-curvature="0"
             id="path829"
             style="fill:none;stroke:#ffffff;stroke-width:0.80000001;stroke-linecap:square;stroke-linejoin:round"
             d="m 180,810.28925 1116,0"
             clip-path="url(#p68ed190a27)" />
        </g>
        <g
           style="stroke-linecap:butt;stroke-linejoin:round"
           id="line2d_70">
          <g
             style="stroke-linecap:butt;stroke-linejoin:round"
             id="g832">
            <path
               d="m 180,810.28925 -3.5,0"
               id="use834"
               style="fill:#555555;stroke:#555555;stroke-width:0.80000001;stroke-linecap:butt;stroke-linejoin:round"
               inkscape:connector-curvature="0" />
          </g>
        </g>
        <g
           style="stroke-linecap:butt;stroke-linejoin:round"
           id="text_29">
          <!-- 0.02 -->
          <g
             id="g837"
             transform="matrix(0.1,0,0,-0.1,150.73437,814.08846)"
             style="fill:#555555;stroke-linecap:butt;stroke-linejoin:round">
            <path
               d="m 31.78125,66.40625 q -7.609375,0 -11.453125,-7.5 Q 16.5,51.421875 16.5,36.375 q 0,-14.984375 3.828125,-22.484375 3.84375,-7.5 11.453125,-7.5 7.671875,0 11.5,7.5 3.84375,7.5 3.84375,22.484375 0,15.046875 -3.84375,22.53125 -3.828125,7.5 -11.5,7.5 z m 0,7.8125 q 12.265625,0 18.734375,-9.703125 6.46875,-9.6875 6.46875,-28.140625 0,-18.40625 -6.46875,-28.109375 -6.46875,-9.6875 -18.734375,-9.6875 -12.25,0 -18.71875,9.6875 Q 6.59375,17.96875 6.59375,36.375 q 0,18.453125 6.46875,28.140625 6.46875,9.703125 18.71875,9.703125 z"
               id="use839"
               inkscape:connector-curvature="0"
               style="stroke-linecap:butt;stroke-linejoin:round" />
            <path
               d="m 74.310547,12.40625 10.3125,0 0,-12.40625 -10.3125,0 z"
               id="use841"
               inkscape:connector-curvature="0"
               style="stroke-linecap:butt;stroke-linejoin:round" />
            <path
               d="m 127.19141,66.40625 q -7.60938,0 -11.45313,-7.5 -3.82812,-7.484375 -3.82812,-22.53125 0,-14.984375 3.82812,-22.484375 3.84375,-7.5 11.45313,-7.5 7.67187,0 11.5,7.5 3.84375,7.5 3.84375,22.484375 0,15.046875 -3.84375,22.53125 -3.82813,7.5 -11.5,7.5 z m 0,7.8125 q 12.26562,0 18.73437,-9.703125 6.46875,-9.6875 6.46875,-28.140625 0,-18.40625 -6.46875,-28.109375 -6.46875,-9.6875 -18.73437,-9.6875 -12.25,0 -18.71875,9.6875 -6.46875,9.703125 -6.46875,28.109375 0,18.453125 6.46875,28.140625 6.46875,9.703125 18.71875,9.703125 z"
               id="use843"
               inkscape:connector-curvature="0"
               style="stroke-linecap:butt;stroke-linejoin:round" />
            <path
               d="m 178.2207,8.296875 34.42188,0 0,-8.296875 -46.28125,0 0,8.296875 q 5.60937,5.8125 15.29687,15.59375 9.70313,9.796875 12.1875,12.640625 4.73438,5.3125 6.60938,9 1.89062,3.6875 1.89062,7.25 0,5.8125 -4.07812,9.46875 -4.07813,3.671875 -10.625,3.671875 -4.64063,0 -9.79688,-1.609375 -5.14062,-1.609375 -11,-4.890625 l 0,9.96875 q 5.95313,2.390625 11.125,3.609375 5.1875,1.21875 9.48438,1.21875 11.32812,0 18.0625,-5.671875 6.73437,-5.65625 6.73437,-15.125 0,-4.5 -1.6875,-8.53125 -1.67187,-4.015625 -6.125,-9.484375 -1.21875,-1.421875 -7.76562,-8.1875 -6.53125,-6.765625 -18.45313,-18.921875 z"
               id="use845"
               inkscape:connector-curvature="0"
               style="stroke-linecap:butt;stroke-linejoin:round" />
          </g>
        </g>
      </g>
      <g
         style="stroke-linecap:butt;stroke-linejoin:round"
         id="ytick_9">
        <g
           style="stroke-linecap:butt;stroke-linejoin:round"
           id="line2d_71">
          <path
             inkscape:connector-curvature="0"
             id="path849"
             style="fill:none;stroke:#ffffff;stroke-width:0.80000001;stroke-linecap:square;stroke-linejoin:round"
             d="m 180,744.29614 1116,0"
             clip-path="url(#p68ed190a27)" />
        </g>
        <g
           style="stroke-linecap:butt;stroke-linejoin:round"
           id="line2d_72">
          <g
             style="stroke-linecap:butt;stroke-linejoin:round"
             id="g852">
            <path
               d="m 180,744.29614 -3.5,0"
               id="use854"
               style="fill:#555555;stroke:#555555;stroke-width:0.80000001;stroke-linecap:butt;stroke-linejoin:round"
               inkscape:connector-curvature="0" />
          </g>
        </g>
        <g
           style="stroke-linecap:butt;stroke-linejoin:round"
           id="text_30">
          <!-- 0.04 -->
          <g
             id="g857"
             transform="matrix(0.1,0,0,-0.1,150.73437,748.09536)"
             style="fill:#555555;stroke-linecap:butt;stroke-linejoin:round">
            <path
               d="m 31.78125,66.40625 q -7.609375,0 -11.453125,-7.5 Q 16.5,51.421875 16.5,36.375 q 0,-14.984375 3.828125,-22.484375 3.84375,-7.5 11.453125,-7.5 7.671875,0 11.5,7.5 3.84375,7.5 3.84375,22.484375 0,15.046875 -3.84375,22.53125 -3.828125,7.5 -11.5,7.5 z m 0,7.8125 q 12.265625,0 18.734375,-9.703125 6.46875,-9.6875 6.46875,-28.140625 0,-18.40625 -6.46875,-28.109375 -6.46875,-9.6875 -18.734375,-9.6875 -12.25,0 -18.71875,9.6875 Q 6.59375,17.96875 6.59375,36.375 q 0,18.453125 6.46875,28.140625 6.46875,9.703125 18.71875,9.703125 z"
               id="use859"
               inkscape:connector-curvature="0"
               style="stroke-linecap:butt;stroke-linejoin:round" />
            <path
               d="m 74.310547,12.40625 10.3125,0 0,-12.40625 -10.3125,0 z"
               id="use861"
               inkscape:connector-curvature="0"
               style="stroke-linecap:butt;stroke-linejoin:round" />
            <path
               d="m 127.19141,66.40625 q -7.60938,0 -11.45313,-7.5 -3.82812,-7.484375 -3.82812,-22.53125 0,-14.984375 3.82812,-22.484375 3.84375,-7.5 11.45313,-7.5 7.67187,0 11.5,7.5 3.84375,7.5 3.84375,22.484375 0,15.046875 -3.84375,22.53125 -3.82813,7.5 -11.5,7.5 z m 0,7.8125 q 12.26562,0 18.73437,-9.703125 6.46875,-9.6875 6.46875,-28.140625 0,-18.40625 -6.46875,-28.109375 -6.46875,-9.6875 -18.73437,-9.6875 -12.25,0 -18.71875,9.6875 -6.46875,9.703125 -6.46875,28.109375 0,18.453125 6.46875,28.140625 6.46875,9.703125 18.71875,9.703125 z"
               id="use863"
               inkscape:connector-curvature="0"
               style="stroke-linecap:butt;stroke-linejoin:round" />
            <path
               d="m 196.83008,64.3125 -24.90625,-38.921875 24.90625,0 z m -2.59375,8.59375 12.40625,0 0,-47.515625 10.40625,0 0,-8.203125 -10.40625,0 0,-17.1875 -9.8125,0 0,17.1875 -32.90625,0 0,9.515625 z"
               id="use865"
               inkscape:connector-curvature="0"
               style="stroke-linecap:butt;stroke-linejoin:round" />
          </g>
        </g>
      </g>
      <g
         style="stroke-linecap:butt;stroke-linejoin:round"
         id="ytick_10">
        <g
           style="stroke-linecap:butt;stroke-linejoin:round"
           id="line2d_73">
          <path
             inkscape:connector-curvature="0"
             id="path869"
             style="fill:none;stroke:#ffffff;stroke-width:0.80000001;stroke-linecap:square;stroke-linejoin:round"
             d="m 180,678.30303 1116,0"
             clip-path="url(#p68ed190a27)" />
        </g>
        <g
           style="stroke-linecap:butt;stroke-linejoin:round"
           id="line2d_74">
          <g
             style="stroke-linecap:butt;stroke-linejoin:round"
             id="g872">
            <path
               d="m 180,678.30304 -3.5,0"
               id="use874"
               style="fill:#555555;stroke:#555555;stroke-width:0.80000001;stroke-linecap:butt;stroke-linejoin:round"
               inkscape:connector-curvature="0" />
          </g>
        </g>
        <g
           style="stroke-linecap:butt;stroke-linejoin:round"
           id="text_31">
          <!-- 0.06 -->
          <g
             id="g877"
             transform="matrix(0.1,0,0,-0.1,150.73437,682.10225)"
             style="fill:#555555;stroke-linecap:butt;stroke-linejoin:round">
            <path
               d="m 31.78125,66.40625 q -7.609375,0 -11.453125,-7.5 Q 16.5,51.421875 16.5,36.375 q 0,-14.984375 3.828125,-22.484375 3.84375,-7.5 11.453125,-7.5 7.671875,0 11.5,7.5 3.84375,7.5 3.84375,22.484375 0,15.046875 -3.84375,22.53125 -3.828125,7.5 -11.5,7.5 z m 0,7.8125 q 12.265625,0 18.734375,-9.703125 6.46875,-9.6875 6.46875,-28.140625 0,-18.40625 -6.46875,-28.109375 -6.46875,-9.6875 -18.734375,-9.6875 -12.25,0 -18.71875,9.6875 Q 6.59375,17.96875 6.59375,36.375 q 0,18.453125 6.46875,28.140625 6.46875,9.703125 18.71875,9.703125 z"
               id="use879"
               inkscape:connector-curvature="0"
               style="stroke-linecap:butt;stroke-linejoin:round" />
            <path
               d="m 74.310547,12.40625 10.3125,0 0,-12.40625 -10.3125,0 z"
               id="use881"
               inkscape:connector-curvature="0"
               style="stroke-linecap:butt;stroke-linejoin:round" />
            <path
               d="m 127.19141,66.40625 q -7.60938,0 -11.45313,-7.5 -3.82812,-7.484375 -3.82812,-22.53125 0,-14.984375 3.82812,-22.484375 3.84375,-7.5 11.45313,-7.5 7.67187,0 11.5,7.5 3.84375,7.5 3.84375,22.484375 0,15.046875 -3.84375,22.53125 -3.82813,7.5 -11.5,7.5 z m 0,7.8125 q 12.26562,0 18.73437,-9.703125 6.46875,-9.6875 6.46875,-28.140625 0,-18.40625 -6.46875,-28.109375 -6.46875,-9.6875 -18.73437,-9.6875 -12.25,0 -18.71875,9.6875 -6.46875,9.703125 -6.46875,28.109375 0,18.453125 6.46875,28.140625 6.46875,9.703125 18.71875,9.703125 z"
               id="use883"
               inkscape:connector-curvature="0"
               style="stroke-linecap:butt;stroke-linejoin:round" />
            <path
               d="m 192.04883,40.375 q -6.64063,0 -10.53125,-4.546875 -3.875,-4.53125 -3.875,-12.4375 0,-7.859375 3.875,-12.4375 3.89062,-4.5625 10.53125,-4.5625 6.64062,0 10.51562,4.5625 3.875,4.578125 3.875,12.4375 0,7.90625 -3.875,12.4375 -3.875,4.546875 -10.51562,4.546875 z m 19.57812,30.921875 0,-8.984375 q -3.71875,1.75 -7.5,2.671875 -3.78125,0.9375 -7.5,0.9375 -9.76562,0 -14.92187,-6.59375 -5.14063,-6.59375 -5.875,-19.921875 2.875,4.25 7.21875,6.515625 4.35937,2.265625 9.57812,2.265625 10.98438,0 17.35938,-6.671875 6.375,-6.65625 6.375,-18.125 0,-11.234375 -6.64063,-18.03125 -6.64062,-6.78125 -17.67187,-6.78125 -12.65625,0 -19.34375,9.6875 -6.6875,9.703125 -6.6875,28.109375 0,17.28125 8.20312,27.5625 8.20313,10.28125 22.01563,10.28125 3.71875,0 7.5,-0.734375 3.78125,-0.734375 7.89062,-2.1875 z"
               id="use885"
               inkscape:connector-curvature="0"
               style="stroke-linecap:butt;stroke-linejoin:round" />
          </g>
        </g>
      </g>
      <g
         style="stroke-linecap:butt;stroke-linejoin:round"
         id="ytick_11">
        <g
           style="stroke-linecap:butt;stroke-linejoin:round"
           id="line2d_75">
          <path
             inkscape:connector-curvature="0"
             id="path889"
             style="fill:none;stroke:#ffffff;stroke-width:0.80000001;stroke-linecap:square;stroke-linejoin:round"
             d="m 180,612.30992 1116,0"
             clip-path="url(#p68ed190a27)" />
        </g>
        <g
           style="stroke-linecap:butt;stroke-linejoin:round"
           id="line2d_76">
          <g
             style="stroke-linecap:butt;stroke-linejoin:round"
             id="g892">
            <path
               d="m 180,612.30994 -3.5,0"
               id="use894"
               style="fill:#555555;stroke:#555555;stroke-width:0.80000001;stroke-linecap:butt;stroke-linejoin:round"
               inkscape:connector-curvature="0" />
          </g>
        </g>
        <g
           style="stroke-linecap:butt;stroke-linejoin:round"
           id="text_32">
          <!-- 0.08 -->
          <g
             id="g897"
             transform="matrix(0.1,0,0,-0.1,150.73437,616.10914)"
             style="fill:#555555;stroke-linecap:butt;stroke-linejoin:round">
            <path
               d="m 31.78125,66.40625 q -7.609375,0 -11.453125,-7.5 Q 16.5,51.421875 16.5,36.375 q 0,-14.984375 3.828125,-22.484375 3.84375,-7.5 11.453125,-7.5 7.671875,0 11.5,7.5 3.84375,7.5 3.84375,22.484375 0,15.046875 -3.84375,22.53125 -3.828125,7.5 -11.5,7.5 z m 0,7.8125 q 12.265625,0 18.734375,-9.703125 6.46875,-9.6875 6.46875,-28.140625 0,-18.40625 -6.46875,-28.109375 -6.46875,-9.6875 -18.734375,-9.6875 -12.25,0 -18.71875,9.6875 Q 6.59375,17.96875 6.59375,36.375 q 0,18.453125 6.46875,28.140625 6.46875,9.703125 18.71875,9.703125 z"
               id="use899"
               inkscape:connector-curvature="0"
               style="stroke-linecap:butt;stroke-linejoin:round" />
            <path
               d="m 74.310547,12.40625 10.3125,0 0,-12.40625 -10.3125,0 z"
               id="use901"
               inkscape:connector-curvature="0"
               style="stroke-linecap:butt;stroke-linejoin:round" />
            <path
               d="m 127.19141,66.40625 q -7.60938,0 -11.45313,-7.5 -3.82812,-7.484375 -3.82812,-22.53125 0,-14.984375 3.82812,-22.484375 3.84375,-7.5 11.45313,-7.5 7.67187,0 11.5,7.5 3.84375,7.5 3.84375,22.484375 0,15.046875 -3.84375,22.53125 -3.82813,7.5 -11.5,7.5 z m 0,7.8125 q 12.26562,0 18.73437,-9.703125 6.46875,-9.6875 6.46875,-28.140625 0,-18.40625 -6.46875,-28.109375 -6.46875,-9.6875 -18.73437,-9.6875 -12.25,0 -18.71875,9.6875 -6.46875,9.703125 -6.46875,28.109375 0,18.453125 6.46875,28.140625 6.46875,9.703125 18.71875,9.703125 z"
               id="use903"
               inkscape:connector-curvature="0"
               style="stroke-linecap:butt;stroke-linejoin:round" />
            <path
               d="m 190.81445,34.625 q -7.03125,0 -11.0625,-3.765625 -4.01562,-3.765625 -4.01562,-10.34375 0,-6.59375 4.01562,-10.359375 4.03125,-3.765625 11.0625,-3.765625 7.03125,0 11.07813,3.78125 4.0625,3.796875 4.0625,10.34375 0,6.578125 -4.03125,10.34375 Q 197.9082,34.625 190.81445,34.625 Z m -9.85937,4.1875 q -6.34375,1.5625 -9.89063,5.90625 -3.53125,4.359375 -3.53125,10.609375 0,8.734375 6.21875,13.8125 6.23438,5.078125 17.0625,5.078125 10.89063,0 17.09375,-5.078125 6.20313,-5.078125 6.20313,-13.8125 0,-6.25 -3.54688,-10.609375 -3.53125,-4.34375 -9.82812,-5.90625 7.125,-1.65625 11.09375,-6.5 3.98437,-4.828125 3.98437,-11.796875 0,-10.609375 -6.46875,-16.28125 -6.46875,-5.65625 -18.53125,-5.65625 -12.04687,0 -18.53125,5.65625 -6.46875,5.671875 -6.46875,16.28125 0,6.96875 4,11.796875 4.01563,4.84375 11.14063,6.5 z m -3.60938,15.578125 q 0,-5.65625 3.53125,-8.828125 3.54688,-3.171875 9.9375,-3.171875 6.35938,0 9.9375,3.171875 3.59375,3.171875 3.59375,8.828125 0,5.671875 -3.59375,8.84375 -3.57812,3.171875 -9.9375,3.171875 -6.39062,0 -9.9375,-3.171875 -3.53125,-3.171875 -3.53125,-8.84375 z"
               id="use905"
               inkscape:connector-curvature="0"
               style="stroke-linecap:butt;stroke-linejoin:round" />
          </g>
        </g>
      </g>
      <g
         style="stroke-linecap:butt;stroke-linejoin:round"
         id="text_33">
        <!-- weight(kg/day) -->
        <g
           id="g908"
           transform="matrix(0,-0.12,-0.12,0,144.23875,761.65313)"
           style="fill:#555555;stroke-linecap:butt;stroke-linejoin:round">
          <path
             d="m 4.203125,54.6875 8.984375,0 11.234375,-42.671875 11.171875,42.671875 10.59375,0 11.234375,-42.671875 11.1875,42.671875 8.984375,0 L 63.28125,0 52.6875,0 40.921875,44.828125 29.109375,0 18.5,0 Z"
             id="use910"
             inkscape:connector-curvature="0"
             style="stroke-linecap:butt;stroke-linejoin:round" />
          <path
             d="m 137.99023,29.59375 0,-4.390625 -41.312496,0 q 0.59375,-9.28125 5.593746,-14.140625 5,-4.859375 13.9375,-4.859375 5.17188,0 10.03125,1.265625 4.85938,1.265625 9.65625,3.8125 l 0,-8.5 q -4.84375,-2.046875 -9.92187,-3.125 -5.07813,-1.078125 -10.29688,-1.078125 -13.09375,0 -20.734371,7.609375 -7.640625,7.625 -7.640625,20.625 0,13.421875 7.25,21.296875 Q 101.80273,56 114.11523,56 q 11.03125,0 17.45313,-7.109375 6.42187,-7.09375 6.42187,-19.296875 z m -8.98437,2.640625 q -0.0937,7.359375 -4.125,11.75 -4.03125,4.40625 -10.67188,4.40625 -7.51562,0 -12.03125,-4.25 -4.515621,-4.25 -5.203121,-11.96875 z"
             id="use912"
             inkscape:connector-curvature="0"
             style="stroke-linecap:butt;stroke-linejoin:round" />
          <path
             d="m 152.73242,54.6875 8.98438,0 0,-54.6875 -8.98438,0 z m 0,21.296875 8.98438,0 0,-11.390625 -8.98438,0 z"
             id="use914"
             inkscape:connector-curvature="0"
             style="stroke-linecap:butt;stroke-linejoin:round" />
          <path
             d="m 216.5,27.984375 q 0,9.765625 -4.03125,15.125 -4.01563,5.375 -11.29688,5.375 -7.21875,0 -11.25,-5.375 -4.03125,-5.359375 -4.03125,-15.125 0,-9.71875 4.03125,-15.09375 4.03125,-5.375 11.25,-5.375 7.28125,0 11.29688,5.375 4.03125,5.375 4.03125,15.09375 z M 225.48437,6.78125 q 0,-13.953125 -6.20312,-20.765625 -6.1875,-6.8125 -18.98438,-6.8125 -4.73437,0 -8.9375,0.703125 -4.20312,0.703125 -8.15625,2.171875 l 0,8.734375 q 3.95313,-2.140625 7.8125,-3.15625 3.85938,-1.03125 7.85938,-1.03125 8.84375,0 13.23437,4.609375 Q 216.5,-4.15625 216.5,5.171875 l 0,4.453125 Q 213.71875,4.78125 209.375,2.390625 205.03125,0 198.96875,0 q -10.04688,0 -16.20313,7.65625 -6.15625,7.671875 -6.15625,20.328125 0,12.6875 6.15625,20.34375 Q 188.92187,56 198.96875,56 q 6.0625,0 10.40625,-2.390625 4.34375,-2.390625 7.125,-7.21875 l 0,8.296875 8.98437,0 z"
             id="use916"
             inkscape:connector-curvature="0"
             style="stroke-linecap:butt;stroke-linejoin:round" />
          <path
             d="m 289.46094,33.015625 0,-33.015625 -8.98438,0 0,32.71875 q 0,7.765625 -3.03125,11.609375 -3.03125,3.859375 -9.07812,3.859375 -7.28125,0 -11.48438,-4.640625 -4.20312,-4.625 -4.20312,-12.640625 l 0,-30.90625 -9.03125,0 0,75.984375 9.03125,0 0,-29.796875 q 3.23437,4.9375 7.59375,7.375 4.375,2.4375 10.09375,2.4375 9.42187,0 14.25,-5.828125 4.84375,-5.828125 4.84375,-17.15625 z"
             id="use918"
             inkscape:connector-curvature="0"
             style="stroke-linecap:butt;stroke-linejoin:round" />
          <path
             d="m 316.26172,70.21875 0,-15.53125 18.5,0 0,-6.984375 -18.5,0 0,-29.6875 q 0,-6.6875 1.82812,-8.59375 1.82813,-1.90625 7.45313,-1.90625 l 9.21875,0 0,-7.515625 -9.21875,0 q -10.40625,0 -14.35938,3.875 -3.95312,3.890625 -3.95312,14.140625 l 0,29.6875 -6.59375,0 0,6.984375 6.59375,0 0,15.53125 z"
             id="use920"
             inkscape:connector-curvature="0"
             style="stroke-linecap:butt;stroke-linejoin:round" />
          <path
             d="m 368.1582,75.875 q -6.53125,-11.21875 -9.71875,-22.21875 -3.17187,-10.984375 -3.17187,-22.265625 0,-11.265625 3.20312,-22.328125 3.20313,-11.0625 9.6875,-22.25 l -7.8125,0 q -7.3125,11.484375 -10.95312,22.5625 -3.64063,11.078125 -3.64063,22.015625 0,10.890625 3.60938,21.921875 3.625,11.046875 10.98437,22.5625 z"
             id="use922"
             inkscape:connector-curvature="0"
             style="stroke-linecap:butt;stroke-linejoin:round" />
          <path
             d="m 385.25,75.984375 9.03125,0 0,-44.875 26.8125,23.578125 11.46875,0 -29,-25.578125 L 433.79687,0 422.07812,0 394.28125,26.703125 394.28125,0 385.25,0 Z"
             id="use924"
             inkscape:connector-curvature="0"
             style="stroke-linecap:butt;stroke-linejoin:round" />
          <path
             d="m 479.48828,27.984375 q 0,9.765625 -4.03125,15.125 -4.01562,5.375 -11.29687,5.375 -7.21875,0 -11.25,-5.375 -4.03125,-5.359375 -4.03125,-15.125 0,-9.71875 4.03125,-15.09375 4.03125,-5.375 11.25,-5.375 7.28125,0 11.29687,5.375 4.03125,5.375 4.03125,15.09375 z M 488.47266,6.78125 q 0,-13.953125 -6.20313,-20.765625 -6.1875,-6.8125 -18.98437,-6.8125 -4.73438,0 -8.9375,0.703125 -4.20313,0.703125 -8.15625,2.171875 l 0,8.734375 q 3.95312,-2.140625 7.8125,-3.15625 3.85937,-1.03125 7.85937,-1.03125 8.84375,0 13.23438,4.609375 4.39062,4.609375 4.39062,13.9375 l 0,4.453125 Q 476.70703,4.78125 472.36328,2.390625 468.01953,0 461.95703,0 q -10.04687,0 -16.20312,7.65625 -6.15625,7.671875 -6.15625,20.328125 0,12.6875 6.15625,20.34375 Q 451.91016,56 461.95703,56 q 6.0625,0 10.40625,-2.390625 4.34375,-2.390625 7.125,-7.21875 l 0,8.296875 8.98438,0 z"
             id="use926"
             inkscape:connector-curvature="0"
             style="stroke-linecap:butt;stroke-linejoin:round" />
          <path
             d="m 522.94922,72.90625 8.29687,0 -25.39062,-82.1875 -8.29688,0 z"
             id="use928"
             inkscape:connector-curvature="0"
             style="stroke-linecap:butt;stroke-linejoin:round" />
          <path
             d="m 576.65625,46.390625 0,29.59375 8.98437,0 0,-75.984375 -8.98437,0 0,8.203125 q -2.82813,-4.875 -7.15625,-7.25 -4.3125,-2.375 -10.375,-2.375 -9.90625,0 -16.14063,7.90625 -6.21875,7.921875 -6.21875,20.8125 0,12.890625 6.21875,20.796875 Q 549.21875,56 559.125,56 q 6.0625,0 10.375,-2.375 4.32812,-2.359375 7.15625,-7.234375 z m -30.60938,-19.09375 q 0,-9.90625 4.07813,-15.546875 4.07812,-5.640625 11.20312,-5.640625 7.125,0 11.21875,5.640625 4.10938,5.640625 4.10938,15.546875 0,9.90625 -4.10938,15.546875 -4.09375,5.640625 -11.21875,5.640625 -7.125,0 -11.20312,-5.640625 -4.07813,-5.640625 -4.07813,-15.546875 z"
             id="use930"
             inkscape:connector-curvature="0"
             style="stroke-linecap:butt;stroke-linejoin:round" />
          <path
             d="m 629.00781,27.484375 q -10.89062,0 -15.09375,-2.484375 -4.20312,-2.484375 -4.20312,-8.5 0,-4.78125 3.15625,-7.59375 3.15625,-2.796875 8.5625,-2.796875 7.48437,0 12,5.296875 4.51562,5.296875 4.51562,14.078125 l 0,2 z m 17.92188,3.71875 0,-31.203125 -8.98438,0 0,8.296875 q -3.07812,-4.96875 -7.67187,-7.34375 -4.59375,-2.375 -11.23438,-2.375 -8.39062,0 -13.35937,4.71875 -4.95313,4.71875 -4.95313,12.625 0,9.21875 6.17188,13.90625 6.1875,4.6875 18.4375,4.6875 l 12.60937,0 0,0.890625 q 0,6.203125 -4.07812,9.59375 -4.07813,3.390625 -11.45313,3.390625 -4.6875,0 -9.14062,-1.125 -4.4375,-1.125 -8.53125,-3.375 l 0,8.3125 q 4.92187,1.90625 9.5625,2.84375 Q 618.94531,56 623.33594,56 q 11.875,0 17.73437,-6.15625 5.85938,-6.140625 5.85938,-18.640625 z"
             id="use932"
             inkscape:connector-curvature="0"
             style="stroke-linecap:butt;stroke-linejoin:round" />
          <path
             d="m 688.17773,-5.078125 q -3.79687,-9.765625 -7.42187,-12.734375 -3.60938,-2.984375 -9.65625,-2.984375 l -7.1875,0 0,7.515625 5.28125,0 q 3.70312,0 5.75,1.765625 2.0625,1.75 4.54687,8.296875 l 1.60938,4.09375 -22.10938,53.8125 9.51563,0 17.09375,-42.765625 17.09375,42.765625 9.51562,0 z"
             id="use934"
             inkscape:connector-curvature="0"
             style="stroke-linecap:butt;stroke-linejoin:round" />
          <path
             d="m 723.20117,75.875 7.8125,0 q 7.3125,-11.515625 10.95313,-22.5625 3.64062,-11.03125 3.64062,-21.921875 0,-10.9375 -3.64062,-22.015625 -3.64063,-11.078125 -10.95313,-22.5625 l -7.8125,0 q 6.48438,11.1875 9.6875,22.25 3.20313,11.0625 3.20313,22.328125 0,11.28125 -3.20313,22.265625 -3.20312,11 -9.6875,22.21875 z"
             id="use936"
             inkscape:connector-curvature="0"
             style="stroke-linecap:butt;stroke-linejoin:round" />
        </g>
      </g>
    </g>
    <g
       style="stroke-linecap:butt;stroke-linejoin:round"
       id="patch_20">
      <path
         inkscape:connector-curvature="0"
         id="path939"
         style="fill:#cc5a49;stroke-linecap:butt;stroke-linejoin:round"
         d="m 198.6,876.28235 148.8,0 0,-245.6135 -148.8,0 z"
         clip-path="url(#p68ed190a27)" />
    </g>
    <g
       style="stroke-linecap:butt;stroke-linejoin:round"
       id="patch_21">
      <path
         inkscape:connector-curvature="0"
         id="path942"
         style="fill:#4586ac;stroke-linecap:butt;stroke-linejoin:round"
         d="m 384.6,876.28235 148.8,0 0,-180.49866 -148.8,0 z"
         clip-path="url(#p68ed190a27)" />
    </g>
    <g
       style="stroke-linecap:butt;stroke-linejoin:round"
       id="patch_22">
      <path
         inkscape:connector-curvature="0"
         id="path945"
         style="fill:#9e97cc;stroke-linecap:butt;stroke-linejoin:round"
         d="m 570.6,876.28235 148.8,0 0,-210.45895 -148.8,0 z"
         clip-path="url(#p68ed190a27)" />
    </g>
    <g
       style="stroke-linecap:butt;stroke-linejoin:round"
       id="patch_23">
      <path
         inkscape:connector-curvature="0"
         id="path948"
         style="fill:#777777;stroke-linecap:butt;stroke-linejoin:round"
         d="m 756.6,876.28235 148.8,0 0,-200.4972 -148.8,0 z"
         clip-path="url(#p68ed190a27)" />
    </g>
    <g
       style="stroke-linecap:butt;stroke-linejoin:round"
       id="patch_24">
      <path
         inkscape:connector-curvature="0"
         id="path951"
         style="fill:#e7bc72;stroke-linecap:butt;stroke-linejoin:round"
         d="m 942.6,876.28235 148.8,0 0,-174.72686 -148.8,0 z"
         clip-path="url(#p68ed190a27)" />
    </g>
    <g
       style="stroke-linecap:butt;stroke-linejoin:round"
       id="patch_25">
      <path
         inkscape:connector-curvature="0"
         id="path954"
         style="fill:#8aab51;stroke-linecap:butt;stroke-linejoin:round"
         d="m 1128.6,876.28235 148.8,0 0,-163.88388 -148.8,0 z"
         clip-path="url(#p68ed190a27)" />
    </g>
    <g
       style="stroke-linecap:butt;stroke-linejoin:round"
       id="line2d_77">
      <path
         inkscape:connector-curvature="0"
         id="path957"
         style="fill:none;stroke:#424242;stroke-width:2.70000005;stroke-linecap:square;stroke-linejoin:round"
         d="m 273,685.0615 0,-113.31696"
         clip-path="url(#p68ed190a27)" />
    </g>
    <g
       style="stroke-linecap:butt;stroke-linejoin:round"
       id="line2d_78">
      <path
         inkscape:connector-curvature="0"
         id="path960"
         style="fill:none;stroke:#424242;stroke-width:2.70000005;stroke-linecap:square;stroke-linejoin:round"
         d="m 263.7,685.0615 18.6,0"
         clip-path="url(#p68ed190a27)" />
    </g>
    <g
       style="stroke-linecap:butt;stroke-linejoin:round"
       id="line2d_79">
      <path
         inkscape:connector-curvature="0"
         id="path963"
         style="fill:none;stroke:#424242;stroke-width:2.70000005;stroke-linecap:square;stroke-linejoin:round"
         d="m 263.7,571.74454 18.6,0"
         clip-path="url(#p68ed190a27)" />
    </g>
    <g
       style="stroke-linecap:butt;stroke-linejoin:round"
       id="line2d_80">
      <path
         inkscape:connector-curvature="0"
         id="path966"
         style="fill:none;stroke:#424242;stroke-width:2.70000005;stroke-linecap:square;stroke-linejoin:round"
         d="m 459,719.15924 0,-50.75318"
         clip-path="url(#p68ed190a27)" />
    </g>
    <g
       style="stroke-linecap:butt;stroke-linejoin:round"
       id="line2d_81">
      <path
         inkscape:connector-curvature="0"
         id="path969"
         style="fill:none;stroke:#424242;stroke-width:2.70000005;stroke-linecap:square;stroke-linejoin:round"
         d="m 449.7,719.15924 18.6,0"
         clip-path="url(#p68ed190a27)" />
    </g>
    <g
       style="stroke-linecap:butt;stroke-linejoin:round"
       id="line2d_82">
      <path
         inkscape:connector-curvature="0"
         id="path972"
         style="fill:none;stroke:#424242;stroke-width:2.70000005;stroke-linecap:square;stroke-linejoin:round"
         d="m 449.7,668.40606 18.6,0"
         clip-path="url(#p68ed190a27)" />
    </g>
    <g
       style="stroke-linecap:butt;stroke-linejoin:round"
       id="line2d_83">
      <path
         inkscape:connector-curvature="0"
         id="path975"
         style="fill:none;stroke:#424242;stroke-width:2.70000005;stroke-linecap:square;stroke-linejoin:round"
         d="m 645,695.63391 0,-63.43405"
         clip-path="url(#p68ed190a27)" />
    </g>
    <g
       style="stroke-linecap:butt;stroke-linejoin:round"
       id="line2d_84">
      <path
         inkscape:connector-curvature="0"
         id="path978"
         style="fill:none;stroke:#424242;stroke-width:2.70000005;stroke-linecap:square;stroke-linejoin:round"
         d="m 635.7,695.63391 18.6,0"
         clip-path="url(#p68ed190a27)" />
    </g>
    <g
       style="stroke-linecap:butt;stroke-linejoin:round"
       id="line2d_85">
      <path
         inkscape:connector-curvature="0"
         id="path981"
         style="fill:none;stroke:#424242;stroke-width:2.70000005;stroke-linecap:square;stroke-linejoin:round"
         d="m 635.7,632.19986 18.6,0"
         clip-path="url(#p68ed190a27)" />
    </g>
    <g
       style="stroke-linecap:butt;stroke-linejoin:round"
       id="line2d_86">
      <path
         inkscape:connector-curvature="0"
         id="path984"
         style="fill:none;stroke:#424242;stroke-width:2.70000005;stroke-linecap:square;stroke-linejoin:round"
         d="m 831,693.35867 0,-35.04575"
         clip-path="url(#p68ed190a27)" />
    </g>
    <g
       style="stroke-linecap:butt;stroke-linejoin:round"
       id="line2d_87">
      <path
         inkscape:connector-curvature="0"
         id="path987"
         style="fill:none;stroke:#424242;stroke-width:2.70000005;stroke-linecap:square;stroke-linejoin:round"
         d="m 821.7,693.35867 18.6,0"
         clip-path="url(#p68ed190a27)" />
    </g>
    <g
       style="stroke-linecap:butt;stroke-linejoin:round"
       id="line2d_88">
      <path
         inkscape:connector-curvature="0"
         id="path990"
         style="fill:none;stroke:#424242;stroke-width:2.70000005;stroke-linecap:square;stroke-linejoin:round"
         d="m 821.7,658.31292 18.6,0"
         clip-path="url(#p68ed190a27)" />
    </g>
    <g
       style="stroke-linecap:butt;stroke-linejoin:round"
       id="line2d_89">
      <path
         inkscape:connector-curvature="0"
         id="path993"
         style="fill:none;stroke:#424242;stroke-width:2.70000005;stroke-linecap:square;stroke-linejoin:round"
         d="m 1017,734.87585 0,-74.68209"
         clip-path="url(#p68ed190a27)" />
    </g>
    <g
       style="stroke-linecap:butt;stroke-linejoin:round"
       id="line2d_90">
      <path
         inkscape:connector-curvature="0"
         id="path996"
         style="fill:none;stroke:#424242;stroke-width:2.70000005;stroke-linecap:square;stroke-linejoin:round"
         d="m 1007.7,734.87585 18.6,0"
         clip-path="url(#p68ed190a27)" />
    </g>
    <g
       style="stroke-linecap:butt;stroke-linejoin:round"
       id="line2d_91">
      <path
         inkscape:connector-curvature="0"
         id="path999"
         style="fill:none;stroke:#424242;stroke-width:2.70000005;stroke-linecap:square;stroke-linejoin:round"
         d="m 1007.7,660.19376 18.6,0"
         clip-path="url(#p68ed190a27)" />
    </g>
    <g
       style="stroke-linecap:butt;stroke-linejoin:round"
       id="line2d_92">
      <path
         inkscape:connector-curvature="0"
         id="path1002"
         style="fill:none;stroke:#424242;stroke-width:2.70000005;stroke-linecap:square;stroke-linejoin:round"
         d="m 1203,744.14071 0,-67.09947"
         clip-path="url(#p68ed190a27)" />
    </g>
    <g
       style="stroke-linecap:butt;stroke-linejoin:round"
       id="line2d_93">
      <path
         inkscape:connector-curvature="0"
         id="path1005"
         style="fill:none;stroke:#424242;stroke-width:2.70000005;stroke-linecap:square;stroke-linejoin:round"
         d="m 1193.7,744.14071 18.6,0"
         clip-path="url(#p68ed190a27)" />
    </g>
    <g
       style="stroke-linecap:butt;stroke-linejoin:round"
       id="line2d_94">
      <path
         inkscape:connector-curvature="0"
         id="path1008"
         style="fill:none;stroke:#424242;stroke-width:2.70000005;stroke-linecap:square;stroke-linejoin:round"
         d="m 1193.7,677.04124 18.6,0"
         clip-path="url(#p68ed190a27)" />
    </g>
    <g
       style="stroke-linecap:butt;stroke-linejoin:round"
       id="patch_26">
      <path
         inkscape:connector-curvature="0"
         id="path1011"
         style="fill:none;stroke:#ffffff;stroke-linecap:square;stroke-linejoin:miter"
         d="m 180,876.28235 0,-319.7647" />
    </g>
    <g
       style="stroke-linecap:butt;stroke-linejoin:round"
       id="patch_27">
      <path
         inkscape:connector-curvature="0"
         id="path1014"
         style="fill:none;stroke:#ffffff;stroke-linecap:square;stroke-linejoin:miter"
         d="m 1296,876.28235 0,-319.7647" />
    </g>
    <g
       style="stroke-linecap:butt;stroke-linejoin:round"
       id="patch_28">
      <path
         inkscape:connector-curvature="0"
         id="path1017"
         style="fill:none;stroke:#ffffff;stroke-linecap:square;stroke-linejoin:miter"
         d="m 180,876.28235 1116,0" />
    </g>
    <g
       style="stroke-linecap:butt;stroke-linejoin:round"
       id="patch_29">
      <path
         inkscape:connector-curvature="0"
         id="path1020"
         style="fill:none;stroke:#ffffff;stroke-linecap:square;stroke-linejoin:miter"
         d="m 180,556.51765 1116,0" />
    </g>
  </g>
  <defs
     id="defs1373">
    <clipPath
       id="p3ede4115b3"
       style="stroke-linecap:butt;stroke-linejoin:round">
      <rect
         height="319.76471"
         width="1116"
         x="180"
         y="172.8"
         id="rect1376"
         style="stroke-linecap:butt;stroke-linejoin:round" />
    </clipPath>
    <clipPath
       id="p68ed190a27"
       style="stroke-linecap:butt;stroke-linejoin:round">
      <rect
         height="319.76471"
         width="1116"
         x="180"
         y="556.51764"
         id="rect1379"
         style="stroke-linecap:butt;stroke-linejoin:round" />
    </clipPath>
    <clipPath
       id="pe22137f99a"
       style="stroke-linecap:butt;stroke-linejoin:round">
      <rect
         height="319.76471"
         width="1116"
         x="180"
         y="940.23529"
         id="rect1382"
         style="stroke-linecap:butt;stroke-linejoin:round" />
    </clipPath>
  </defs>
</svg>
